<?xml version="1.0" encoding="UTF-8"?>
<svg version="1.1" xmlns="http://www.w3.org/2000/svg" width="512" height="512">
<path d="M0 0 C0.71506824 -0.00467997 1.43013648 -0.00935994 2.16687346 -0.01418173 C4.56915918 -0.02617259 6.97087873 -0.01665888 9.37316895 -0.00723267 C11.0928633 -0.01129656 12.81255504 -0.01663742 14.53224182 -0.02316284 C19.20780119 -0.03686393 23.88316243 -0.03152631 28.55872536 -0.02202559 C33.44605681 -0.01444343 38.33337102 -0.02147057 43.22070312 -0.02618408 C51.42894545 -0.03164585 59.63710687 -0.02443898 67.84533691 -0.01016235 C77.34242026 0.00616496 86.83931041 0.00087675 96.33638906 -0.01564157 C104.48251804 -0.02924444 112.62858878 -0.03118197 120.77472544 -0.02332556 C125.64350458 -0.01864244 130.51219284 -0.0180417 135.38096619 -0.02793503 C139.95775356 -0.036585 144.53429124 -0.03061897 149.11105156 -0.01325226 C150.79329958 -0.00927685 152.47556853 -0.0104394 154.1578083 -0.01704025 C156.44932305 -0.02520452 158.74003118 -0.01499715 161.03149414 0 C162.95726665 0.00169662 162.95726665 0.00169662 164.92194366 0.00342751 C168.01574707 0.38095093 168.01574707 0.38095093 169.92803288 1.47103786 C171.60410702 4.41404983 171.39700746 6.95156341 171.40342712 10.32051086 C171.41150543 11.38592955 171.41150543 11.38592955 171.41974694 12.47287184 C171.43408375 14.85899176 171.42690898 17.24456137 171.4197998 19.63070679 C171.42550041 21.33892769 171.43246346 23.04714478 171.44059753 24.75535583 C171.45857861 29.39998141 171.45735127 34.04441859 171.45165515 38.68906856 C171.44857035 42.56348271 171.45464785 46.43786031 171.4606939 50.31226927 C171.47475384 59.45099797 171.4731657 68.58963322 171.46179199 77.72836304 C171.45030965 87.16298365 171.46438504 96.59732005 171.49118847 106.03190321 C171.51332512 114.12624713 171.51998744 122.2205017 171.51411206 130.31487375 C171.51073634 135.15186367 171.51319813 139.98867138 171.53036308 144.82563591 C171.54579774 149.37375326 171.54191559 153.92144871 171.52305794 158.46954918 C171.51936234 160.14009265 171.52250871 161.81066713 171.53294373 163.4811821 C171.54608984 165.75941426 171.53466481 168.03623653 171.51695251 170.31440735 C171.51674323 171.58995955 171.51653395 172.86551176 171.51631832 174.17971706 C171.01574707 177.38095093 171.01574707 177.38095093 169.42328739 179.79128456 C166.14799621 181.9539151 163.90921869 181.88150958 159.99389648 181.88215637 C158.93332149 181.89045797 158.93332149 181.89045797 157.85132074 181.89892727 C155.48194391 181.91254143 153.1136191 181.89756147 150.7442627 181.88265991 C149.04574638 181.88644283 147.34723315 181.89194265 145.64872742 181.89903259 C141.03507559 181.91300806 136.42179581 181.90180282 131.8081646 181.88532138 C126.98270237 181.87148334 122.15726201 181.87792954 117.33178711 181.88145447 C109.22784419 181.88415758 101.1240493 181.87067233 93.0201416 181.84750366 C83.64744917 181.82089329 74.27500427 181.81914645 64.90228701 181.83089203 C55.89048879 181.84166679 46.87878023 181.8354851 37.86698914 181.82133675 C34.0297382 181.81557433 30.19255281 181.81566164 26.3553009 181.82040215 C21.83757757 181.82517031 17.32012568 181.81507699 12.80245399 181.79344749 C11.14320605 181.78787725 9.48393204 181.78741651 7.82468224 181.79240036 C5.56201828 181.79834494 3.30018657 181.78586492 1.03759766 181.76863098 C-0.22928139 181.76620109 -1.49616043 181.76377119 -2.80142975 181.76126766 C-6.28953583 181.34447256 -7.73344177 181.08381008 -9.98425293 178.38095093 C-10.48482418 175.28714752 -10.48482418 175.28714752 -10.48545837 171.396698 C-10.49375997 170.32409564 -10.49375997 170.32409564 -10.50222927 169.22982454 C-10.51587157 166.8273753 -10.50084821 164.42595858 -10.48596191 162.02352905 C-10.48974381 160.30383359 -10.49524279 158.58414117 -10.50233459 156.86445618 C-10.51632342 152.18883272 -10.5050955 147.51357583 -10.48862338 142.83797264 C-10.47479764 137.95064361 -10.48123013 133.06333639 -10.48475647 128.17599487 C-10.48746056 119.96772334 -10.47396594 111.75959787 -10.45080566 103.55136108 C-10.42419468 94.05427044 -10.42244809 84.55742408 -10.43419403 75.06030893 C-10.444964 65.93371351 -10.43879088 56.80720667 -10.42463875 47.68061829 C-10.41887216 43.79230156 -10.4189669 39.90404951 -10.42370415 36.01573181 C-10.42846782 31.43893023 -10.41839768 26.86239696 -10.3967495 22.28564644 C-10.39117311 20.6034034 -10.39072411 18.92113461 -10.39570236 17.23888969 C-10.40163444 14.94736085 -10.38919108 12.65665813 -10.37193298 10.36520386 C-10.36950309 9.08135551 -10.36707319 7.79750717 -10.36456966 6.47475433 C-9.98425293 3.38095093 -9.98425293 3.38095093 -8.89653873 1.46824455 C-5.94030086 -0.2126227 -3.38206515 0.00297962 0 0 Z M4.01574707 14.38095093 C4.01574707 64.54095093 4.01574707 114.70095093 4.01574707 166.38095093 C54.17574707 166.38095093 104.33574707 166.38095093 156.01574707 166.38095093 C156.01574707 116.22095093 156.01574707 66.06095093 156.01574707 14.38095093 C105.85574707 14.38095093 55.69574707 14.38095093 4.01574707 14.38095093 Z " fill="#000000" transform="translate(18.9842529296875,40.619049072265625)"/>
<path d="M0 0 C1.49853516 1.10988281 1.49853516 1.10988281 3.02734375 2.2421875 C11.05832643 8.54707738 17.10975744 15.71479592 23 24 C23.87785156 25.21236328 23.87785156 25.21236328 24.7734375 26.44921875 C28.28753325 31.77614168 30.5172523 37.55349472 32.75 43.5 C33.04422852 44.28334717 33.33845703 45.06669434 33.64160156 45.8737793 C41.80578264 68.59016377 40.25398168 95.22073746 30.40625 117.16796875 C18.24555532 141.65825664 -1.04630361 160.05571272 -27 169 C-51.58057964 177.06993812 -78.87887108 174.38380757 -101.95458984 163.0390625 C-125.2577456 150.88396685 -142.04373672 129.65947237 -150.02734375 104.79296875 C-156.90661846 77.96656013 -153.48645725 52.00987099 -140.30859375 27.90625 C-136.27489904 21.24269865 -131.37034514 15.61445174 -126 10 C-125.38640625 9.31164062 -124.7728125 8.62328125 -124.140625 7.9140625 C-92.5675167 -26.22267425 -35.81573363 -26.61142392 0 0 Z M-116 21 C-131.65195954 37.64899537 -138.70759504 57.7623789 -138.46850586 80.49438477 C-137.86567533 99.49377733 -130.92184746 116.95347322 -118 131 C-117.26265625 131.82886719 -116.5253125 132.65773437 -115.765625 133.51171875 C-102.16012297 148.0287005 -83.03062347 157.39773057 -63.02734375 158.3359375 C-41.13095208 158.72797176 -21.78973627 153.64986792 -5 139 C-4.030625 138.2265625 -3.06125 137.453125 -2.0625 136.65625 C10.87226223 125.85837693 20.99440787 106.63318332 23 90 C25.04513201 63.33567846 18.62801006 41.63926078 1.3984375 21.08984375 C-13.05656172 5.4599308 -34.17634747 -2.92101592 -55.13745117 -3.97631836 C-78.0110914 -4.60725731 -99.96929296 4.89386617 -116 21 Z " fill="#000000" transform="translate(465,54)"/>
<path d="M0 0 C1.08246506 -0.00571014 2.16493011 -0.01142029 3.28019714 -0.01730347 C4.478134 -0.01842133 5.67607086 -0.01953918 6.91030884 -0.02069092 C8.16384659 -0.02565582 9.41738434 -0.03062073 10.70890808 -0.03573608 C14.157303 -0.0478703 17.60563708 -0.05530957 21.05404615 -0.05974674 C23.20674498 -0.06267388 25.35943843 -0.066778 27.51213455 -0.07125092 C34.24240005 -0.08493223 40.97265332 -0.09459565 47.70293176 -0.09845281 C55.48131793 -0.10293464 63.25952847 -0.12048554 71.03786123 -0.1494534 C77.04382705 -0.17104685 83.04974338 -0.18115584 89.05574763 -0.18249393 C92.64579866 -0.18354369 96.23568475 -0.18948739 99.82569504 -0.20731354 C103.82926901 -0.22680562 107.83247402 -0.22251464 111.83609009 -0.21600342 C113.02997849 -0.2252182 114.22386688 -0.23443298 115.45393372 -0.243927 C116.54203842 -0.23835785 117.63014313 -0.2327887 118.7512207 -0.22705078 C120.17205995 -0.22925062 120.17205995 -0.22925062 121.62160301 -0.2314949 C124.44250872 0.20916138 125.28396624 0.90976839 127.00259399 3.14044189 C128.24782746 5.63090882 128.13395938 7.30558697 128.14303589 10.0927887 C128.14874603 11.14008148 128.15445618 12.18737427 128.16033936 13.2664032 C128.16201614 14.99709801 128.16201614 14.99709801 128.16372681 16.76275635 C128.16869171 17.97421326 128.17365662 19.18567017 128.17877197 20.43383789 C128.19089395 23.76247753 128.19834238 27.09105424 128.20278263 30.41970849 C128.20571266 32.49922664 128.20981736 34.57873926 128.2142868 36.65825462 C128.22796437 43.1642677 128.23762939 49.67026816 128.2414887 56.17629462 C128.24596832 63.68694113 128.26351052 71.19740553 128.29248929 78.70799667 C128.31410873 84.5127418 128.32419313 90.31743573 128.32552981 96.1222207 C128.32657779 99.58936222 128.33248362 103.05633264 128.35034943 106.52343178 C128.36989728 110.39232882 128.36554007 114.26099858 128.35903931 118.12994385 C128.36825409 119.27766769 128.37746887 120.42539154 128.38696289 121.6078949 C128.37860916 123.19152328 128.37860916 123.19152328 128.37008667 124.80714417 C128.37155323 125.72173055 128.37301979 126.63631693 128.37453079 127.57861805 C127.9175409 130.72627004 126.89823093 132.60177298 125.00259399 135.14044189 C122.01344701 136.13682422 120.04442517 136.26843088 116.92326355 136.27415466 C115.34809464 136.28055214 115.34809464 136.28055214 113.74110413 136.28707886 C112.58933182 136.28662567 111.43755951 136.28617249 110.25088501 136.28570557 C109.03767578 136.28906418 107.82446655 136.29242279 106.57449341 136.29588318 C103.24597713 136.30376272 99.91752322 136.30706116 96.58900189 136.30769897 C93.81062865 136.30864845 91.03226139 136.31232717 88.25389045 136.31587106 C81.69933738 136.32401441 75.14479803 136.32645539 68.59024048 136.32574463 C61.82774092 136.32514369 55.0653211 136.33569891 48.30284172 136.35148829 C42.49724278 136.36456071 36.69166991 136.36992866 30.88605636 136.36928922 C27.41844533 136.36903416 23.95090517 136.37188948 20.48330879 136.38246727 C16.61673994 136.39394012 12.75028063 136.38940325 8.88369751 136.38336182 C7.73394943 136.38898132 6.58420135 136.39460083 5.39961243 136.40039062 C4.34667999 136.39619614 3.29374756 136.39200165 2.20890808 136.38768005 C1.29469872 136.38822482 0.38048937 136.38876959 -0.5614233 136.38933086 C-3.26764878 136.11283068 -4.78718109 135.73343945 -6.99740601 134.14044189 C-8.84756914 130.69466636 -9.24922803 127.7763395 -9.25810242 123.90325928 C-9.26518723 122.86867081 -9.27227203 121.83408234 -9.27957153 120.7681427 C-9.27585541 119.08167885 -9.27585541 119.08167885 -9.27206421 117.36114502 C-9.27717514 116.16875717 -9.28228607 114.97636932 -9.28755188 113.74784851 C-9.2990569 110.48546859 -9.30152372 107.22324651 -9.29898858 103.96085167 C-9.29791727 101.23465754 -9.30280619 98.50848673 -9.307594 95.78229761 C-9.31867931 89.35039168 -9.31913176 82.91854416 -9.31307983 76.4866333 C-9.30703669 69.85584712 -9.31936179 63.22527296 -9.3406499 56.59452295 C-9.35827137 50.89586362 -9.36426651 45.19727175 -9.36101216 39.49858618 C-9.3592004 36.09745356 -9.36182481 32.69647228 -9.3757267 29.29536438 C-9.38803921 25.50332205 -9.38133031 21.71177298 -9.36972046 17.91973877 C-9.3773642 16.79542953 -9.38500793 15.6711203 -9.3928833 14.51274109 C-9.38586899 13.47815262 -9.37885468 12.44356415 -9.37162781 11.37762451 C-9.37179555 10.48168327 -9.37196329 9.58574203 -9.37213612 8.66265106 C-8.43402233 2.34845551 -5.96061356 0.01873358 0 0 Z M6.00259399 14.14044189 C6.00259399 49.45044189 6.00259399 84.76044189 6.00259399 121.14044189 C41.31259399 121.14044189 76.62259399 121.14044189 113.00259399 121.14044189 C113.00259399 85.83044189 113.00259399 50.52044189 113.00259399 14.14044189 C77.69259399 14.14044189 42.38259399 14.14044189 6.00259399 14.14044189 Z " fill="#000000" transform="translate(347.9974060058594,328.85955810546875)"/>
<path d="M0 0 C2.11900949 1.63135664 4.15089244 3.31627703 6.171875 5.06640625 C6.96464844 5.66324219 7.75742188 6.26007813 8.57421875 6.875 C22.15560829 18.33238275 30.96050861 36.60786828 33.171875 54.06640625 C34.99865944 76.09974501 31.09093752 97.79432622 16.70703125 115.28515625 C15.94712891 116.166875 15.94712891 116.166875 15.171875 117.06640625 C14.61371094 117.77796875 14.05554688 118.48953125 13.48046875 119.22265625 C1.17123529 134.23015591 -17.8173752 143.0323086 -36.77734375 145.6015625 C-57.55892342 147.62387109 -78.91744219 142.67102501 -95.57226562 129.70898438 C-112.74135869 115.50738887 -123.72209861 96.38350323 -126.578125 74.19140625 C-126.68260691 72.81785138 -126.7669031 71.44256806 -126.828125 70.06640625 C-126.86808594 69.38964844 -126.90804687 68.71289062 -126.94921875 68.015625 C-127.6494052 45.48609643 -118.78685811 25.49815552 -103.828125 9.06640625 C-76.85060732 -19.2270879 -31.53755216 -21.56227669 0 0 Z M-67.828125 4.06640625 C-68.42399414 4.31390625 -69.01986328 4.56140625 -69.63378906 4.81640625 C-86.74404103 12.09521358 -99.98464803 23.94988276 -107.203125 41.44140625 C-113.47159458 57.75958829 -113.089566 74.75620886 -106.828125 91.06640625 C-102.82247197 99.5667141 -97.4346832 106.4367482 -90.828125 113.06640625 C-89.90773438 114.02160156 -89.90773438 114.02160156 -88.96875 114.99609375 C-76.78580293 126.71046593 -59.33650874 131.32612517 -42.828125 131.06640625 C-24.61368817 129.47388718 -7.681181 121.09701232 4.171875 107.06640625 C15.99234853 91.21839234 20.55994809 73.36462802 17.8671875 53.859375 C14.61447346 36.50050311 4.294134 21.53738242 -10.09765625 11.48046875 C-26.47056017 1.05894348 -49.33162115 -3.77738335 -67.828125 4.06640625 Z " fill="#000000" transform="translate(145.828125,330.93359375)"/>
<path d="M0 0 C1.29063354 -0.00478363 2.58126709 -0.00956726 3.91101074 -0.01449585 C6.6380823 -0.0218518 9.3643328 -0.01120535 12.09130859 0.01220703 C15.57877706 0.04069693 19.06432172 0.02428567 22.55171967 -0.00565529 C25.88879877 -0.0281165 29.22536631 -0.01236882 32.5625 0 C33.81156128 -0.01012115 35.06062256 -0.02024231 36.34753418 -0.03067017 C45.9714589 0.09956055 45.9714589 0.09956055 49.07226562 3.01416016 C51.1714269 6.26905966 51.50896354 7.86378067 50.78125 11.6640625 C48.65440065 14.4190398 47.47241515 15.53731894 44.01135254 16.17199707 C42.41728577 16.17677063 42.41728577 16.17677063 40.79101562 16.18164062 C39.58296265 16.19424927 38.37490967 16.20685791 37.13024902 16.21984863 C35.82914185 16.21175171 34.52803467 16.20365479 33.1875 16.1953125 C31.83516155 16.19800834 30.48282499 16.20189153 29.13049316 16.20690918 C26.29920966 16.21280009 23.46843167 16.20425543 20.63720703 16.18554688 C17.01198337 16.16275632 13.3879442 16.17588177 9.76276398 16.19983673 C6.97112132 16.21430646 4.17975848 16.20968361 1.3881073 16.19932556 C-0.59718598 16.19536795 -2.58249024 16.20749416 -4.56774902 16.21984863 C-6.37982849 16.20093567 -6.37982849 16.20093567 -8.22851562 16.18164062 C-9.29122681 16.17845825 -10.35393799 16.17527588 -11.44885254 16.17199707 C-14.90991515 15.53731894 -16.09190065 14.4190398 -18.21875 11.6640625 C-18.94646354 7.86378067 -18.6089269 6.26905966 -16.50976562 3.01416016 C-12.12915424 -1.10339034 -5.61044799 -0.04546151 0 0 Z " fill="#000000" transform="translate(237.21875,369.3359375)"/>
<path d="M0 0 C1.20805298 -0.01260864 2.41610596 -0.02521729 3.6607666 -0.03820801 C4.96187378 -0.03011108 6.26298096 -0.02201416 7.60351562 -0.01367188 C8.95585407 -0.01636772 10.30819063 -0.02025091 11.66052246 -0.02526855 C14.49180597 -0.03115946 17.32258395 -0.0226148 20.15380859 -0.00390625 C23.77903226 0.0188843 27.40307143 0.00575886 31.02825165 -0.01819611 C33.8198943 -0.03266583 36.61125714 -0.02804299 39.40290833 -0.01768494 C41.38820161 -0.01372732 43.37350586 -0.02585354 45.35876465 -0.03820801 C47.17084412 -0.01929504 47.17084412 -0.01929504 49.01953125 0 C50.08224243 0.00318237 51.14495361 0.00636475 52.23986816 0.00964355 C55.70161192 0.64444659 56.89045916 1.75438813 59.00976562 4.51757812 C59.51323885 7.96996594 59.42532717 9.78539827 57.69726562 12.83007812 C54.67984938 15.84749437 51.56224754 15.65082897 47.51611328 15.67871094 C45.82888657 15.69312225 45.82888657 15.69312225 44.10757446 15.70782471 C42.89193817 15.71207458 41.67630188 15.71632446 40.42382812 15.72070312 C38.5502211 15.72925323 38.5502211 15.72925323 36.63876343 15.73797607 C33.99416459 15.7474291 31.34967932 15.75432451 28.70507812 15.7578125 C25.32341477 15.76329513 21.94215448 15.78732268 18.56061745 15.81578445 C15.32755166 15.83893504 12.09446519 15.84086197 8.86132812 15.84570312 C7.6497403 15.85804993 6.43815247 15.87039673 5.18984985 15.88311768 C4.05872772 15.88011658 2.92760559 15.87711548 1.76220703 15.87402344 C0.76975983 15.87766907 -0.22268738 15.8813147 -1.24520874 15.8850708 C-4.48149943 15.45180959 -6.36435505 14.42797654 -8.99023438 12.51757812 C-10.41065258 9.67674171 -10.3047571 7.66280535 -9.99023438 4.51757812 C-6.98968895 0.57258559 -4.86283681 0.01456215 0 0 Z " fill="#000000" transform="translate(228.990234375,138.482421875)"/>
<path d="M0 0 C1.20805298 -0.01260864 2.41610596 -0.02521729 3.6607666 -0.03820801 C4.96187378 -0.03011108 6.26298096 -0.02201416 7.60351562 -0.01367188 C8.95585407 -0.01636772 10.30819063 -0.02025091 11.66052246 -0.02526855 C14.49180597 -0.03115946 17.32258395 -0.0226148 20.15380859 -0.00390625 C23.77903226 0.0188843 27.40307143 0.00575886 31.02825165 -0.01819611 C33.8198943 -0.03266583 36.61125714 -0.02804299 39.40290833 -0.01768494 C41.38820161 -0.01372732 43.37350586 -0.02585354 45.35876465 -0.03820801 C47.17084412 -0.01929504 47.17084412 -0.01929504 49.01953125 0 C50.08224243 0.00318237 51.14495361 0.00636475 52.23986816 0.00964355 C55.70093077 0.64432169 56.88291627 1.76260083 59.00976562 4.51757812 C59.73761254 8.31855645 59.39907359 9.91342778 57.30078125 13.16967773 C52.91987938 17.28759792 46.39876012 16.206008 40.79101562 16.14648438 C39.50038208 16.14889633 38.20974854 16.15130829 36.88000488 16.15379333 C34.15291723 16.15664621 31.42665322 16.14200276 28.69970703 16.11450195 C25.2124362 16.08041776 21.72663728 16.08644094 18.23929596 16.10516453 C14.9022241 16.11830315 11.56557724 16.10001142 8.22851562 16.08398438 C6.35492371 16.09142418 6.35492371 16.09142418 4.44348145 16.09901428 C3.27877319 16.08317795 2.11406494 16.06734161 0.9140625 16.05102539 C-0.10788208 16.04482681 -1.12982666 16.03862823 -2.18273926 16.03224182 C-5.75747856 15.37692865 -7.44989794 14.08051561 -9.99023438 11.51757812 C-10.55273438 8.01757812 -10.55273438 8.01757812 -9.99023438 4.51757812 C-6.99069613 0.56868217 -4.86689482 0.0145743 0 0 Z " fill="#000000" transform="translate(228.990234375,407.482421875)"/>
<path d="M0 0 C1.18480453 -0.01260864 2.36960907 -0.02521729 3.59031677 -0.03820801 C4.86641312 -0.03011108 6.14250946 -0.02201416 7.45727539 -0.01367188 C8.77151993 -0.01749878 10.08576447 -0.02132568 11.43983459 -0.02526855 C14.21984693 -0.03115977 16.99934449 -0.02261526 19.77929688 -0.00390625 C23.33492839 0.01886215 26.88935073 0.00577323 30.44493771 -0.01819611 C33.84497925 -0.03616705 37.24469953 -0.02356524 40.64477539 -0.01367188 C42.55588356 -0.02581726 42.55588356 -0.02581726 44.50559998 -0.03820801 C46.28753502 -0.01929504 46.28753502 -0.01929504 48.10546875 0 C49.14819443 0.00318237 50.1909201 0.00636475 51.26524353 0.00964355 C54.85998789 0.64981694 56.5491646 1.96364012 59.11743164 4.51757812 C59.92949362 8.33426943 59.51776153 9.8977401 57.40454102 13.16967773 C53.02735312 17.28919631 46.50413584 16.20598369 40.89868164 16.14648438 C39.6080481 16.14889633 38.31741455 16.15130829 36.9876709 16.15379333 C34.26058324 16.15664621 31.53431923 16.14200276 28.80737305 16.11450195 C25.32010222 16.08041776 21.8343033 16.08644094 18.34696198 16.10516453 C15.00989011 16.11830315 11.67324326 16.10001142 8.33618164 16.08398438 C6.46258972 16.09142418 6.46258972 16.09142418 4.55114746 16.09901428 C3.38643921 16.08317795 2.22173096 16.06734161 1.02172852 16.05102539 C-0.00021606 16.04482681 -1.02216064 16.03862823 -2.07507324 16.03224182 C-5.64981254 15.37692865 -7.34223192 14.08051561 -9.88256836 11.51757812 C-10.44506836 8.01757812 -10.44506836 8.01757812 -9.88256836 4.51757812 C-6.90458671 0.61288258 -4.8254737 0.01473847 0 0 Z " fill="#000000" transform="translate(228.882568359375,100.482421875)"/>
</svg>
