<?xml version="1.0" encoding="UTF-8"?>
<svg version="1.1" xmlns="http://www.w3.org/2000/svg" width="512" height="512">
<path d="M0 0 C1.25428802 -0.00852997 2.50857605 -0.01705994 3.8008728 -0.02584839 C5.1835481 -0.02514939 6.5662233 -0.02422634 7.94889832 -0.02310181 C9.41134483 -0.02908936 10.87378819 -0.03589543 12.33622742 -0.04345703 C16.30590423 -0.06111464 20.27549478 -0.06581269 24.24520707 -0.0670886 C26.73171456 -0.06851244 29.2182003 -0.07278675 31.70470238 -0.07808304 C40.39858255 -0.09659203 49.09240144 -0.10475375 57.78630066 -0.10317993 C65.85630399 -0.10198265 73.92603808 -0.12300116 81.99597341 -0.15466726 C88.94659791 -0.1809568 95.89713528 -0.19154175 102.84780902 -0.19026911 C106.9887724 -0.1897626 111.1294972 -0.1952698 115.27041054 -0.21662521 C119.1767465 -0.23621896 123.08262179 -0.23599055 126.98897552 -0.22159195 C128.40937931 -0.21952766 129.82981351 -0.22405943 131.25016594 -0.23631287 C151.48194266 -0.39929968 169.640439 5.50524664 184.77384949 19.26742554 C185.62849792 20.04086304 186.48314636 20.81430054 187.36369324 21.61117554 C193.22113459 27.17794687 198.00873811 33.08628596 201.77384949 40.26742554 C201.77384949 40.92742554 201.77384949 41.58742554 201.77384949 42.26742554 C202.43384949 42.26742554 203.09384949 42.26742554 203.77384949 42.26742554 C204.17797058 41.17301147 204.17797058 41.17301147 204.59025574 40.05648804 C210.28300443 26.6418921 222.32072274 16.22437758 234.77384949 9.26742554 C235.93787292 8.57713257 235.93787292 8.57713257 237.12541199 7.87289429 C249.26038115 1.15604681 262.6848124 -0.33642456 276.32463074 -0.25015259 C277.80168338 -0.25559263 279.27873059 -0.26272569 280.75576782 -0.27139282 C284.71198225 -0.28939329 288.66777251 -0.2826603 292.62399292 -0.26987648 C296.78821326 -0.2596416 300.95240093 -0.26916949 305.11662292 -0.27542114 C312.09634331 -0.28266091 319.07589334 -0.27320027 326.05558777 -0.25405884 C334.10839616 -0.23222863 342.16080033 -0.23940057 350.21359921 -0.26136446 C357.15839808 -0.27954217 364.10307568 -0.28206728 371.04789066 -0.27160978 C375.18281752 -0.26539661 379.31755446 -0.26448029 383.45246887 -0.27775574 C387.33352609 -0.28935087 391.21406288 -0.28122255 395.09506416 -0.25817871 C396.51398418 -0.25291399 397.93294841 -0.25436691 399.35185051 -0.26322937 C408.41736089 -0.31461389 414.96861638 0.05656796 422.01603699 6.23226929 C422.55486511 6.88324585 423.09369324 7.53422241 423.64884949 8.20492554 C424.20314636 8.85332397 424.75744324 9.50172241 425.32853699 10.16976929 C428.06013105 14.13427202 429.02362566 17.68504719 429.04850769 22.46908569 C429.0580397 23.48008331 429.06757172 24.49108093 429.07739258 25.53271484 C429.07602547 27.15323257 429.07602547 27.15323257 429.07463074 28.80648804 C429.07891586 29.92429657 429.08320099 31.0421051 429.08761597 32.19378662 C429.09335058 34.55231042 429.09386594 36.91085189 429.08952332 39.26937866 C429.08635492 42.88621912 429.10986338 46.50224817 429.13517761 50.11898804 C429.13744976 52.41065367 429.1381545 54.70232151 429.13713074 56.99398804 C429.14634048 58.07838165 429.15555023 59.16277527 429.16503906 60.2800293 C429.15569588 61.78706924 429.15569588 61.78706924 429.14616394 63.32455444 C429.14679337 64.20882111 429.14742279 65.09308777 429.14807129 66.00415039 C428.69144746 68.76578897 428.00307546 69.61675468 425.77384949 71.26742554 C422.39884949 72.20492554 422.39884949 72.20492554 418.77384949 72.26742554 C415.3464332 70.18117214 414.04903912 69.09299443 412.77384949 65.26742554 C412.67493453 63.83114671 412.62839182 62.39089213 412.61613464 60.95126343 C412.60074142 59.64959984 412.60074142 59.64959984 412.58503723 58.32164001 C412.5777359 57.3872258 412.57043457 56.45281158 412.56291199 55.49008179 C412.53484986 53.51285987 412.50618544 51.53564644 412.47697449 49.55844116 C412.43566783 46.44003478 412.39878086 43.32178773 412.3724823 40.20321655 C412.34490628 37.19433944 412.2990425 34.18618234 412.25041199 31.17758179 C412.24553268 29.77899681 412.24553268 29.77899681 412.24055481 28.35215759 C412.15784341 23.35278615 412.15784341 23.35278615 410.49406433 18.71054077 C407.20199049 15.94876835 403.48983843 16.14096897 399.33784485 16.13371277 C398.23349594 16.12944778 397.12914703 16.1251828 395.99133301 16.12078857 C394.18042427 16.12146835 394.18042427 16.12146835 392.33293152 16.12216187 C390.41995018 16.11712395 390.41995018 16.11712395 388.46832275 16.11198425 C384.9697925 16.10315096 381.4712867 16.10080622 377.97274637 16.10016847 C375.78158598 16.09945676 373.59043177 16.09732 371.39927292 16.09467125 C363.73864601 16.08541501 356.07803649 16.08133608 348.41740417 16.0821228 C341.30574124 16.08272137 334.19415471 16.07221396 327.08251107 16.05637914 C320.95826716 16.0432349 314.83404798 16.03794188 308.70979011 16.03857821 C305.06078844 16.0388315 301.41185445 16.03607609 297.76286697 16.02540016 C293.67809739 16.01377687 289.59349453 16.01850773 285.50871277 16.02450562 C283.7281675 16.01607635 283.7281675 16.01607635 281.91165161 16.00747681 C261.9332097 16.08146873 244.01235727 20.46148494 229.08634949 34.39242554 C216.49858159 47.67951387 211.76361616 63.04971834 211.45744324 80.91586304 C211.42627159 82.43465561 211.42627159 82.43465561 211.39447021 83.98413086 C211.32933351 87.20349652 211.27025717 90.42294047 211.21134949 93.64242554 C211.16813012 95.83123556 211.12451476 98.02003781 211.08049011 100.20883179 C210.9736891 105.56161474 210.87185749 110.91447476 210.77384949 116.26742554 C211.39638611 116.40769165 212.01892273 116.54795776 212.6603241 116.69247437 C217.58791372 118.03294723 221.10802136 122.15771199 223.64884949 126.39242554 C226.77334681 134.37725203 226.51733897 141.06649253 223.11369324 148.92758179 C221.03886941 152.55096217 218.3579438 155.13740458 214.77384949 157.26742554 C213.45384949 157.59742554 212.13384949 157.92742554 210.77384949 158.26742554 C210.77384949 170.80742554 210.77384949 183.34742554 210.77384949 196.26742554 C216.38384949 196.26742554 221.99384949 196.26742554 227.77384949 196.26742554 C230.74384949 197.25742554 230.74384949 197.25742554 233.77384949 198.26742554 C233.78843201 197.19782593 233.80301453 196.12822632 233.81803894 195.0262146 C233.8760725 191.0525696 233.95330468 187.07948829 234.03630066 183.10629272 C234.0695263 181.38763589 234.09756565 179.66887055 234.12028503 177.95004272 C234.1538751 175.47724231 234.20619127 173.00543398 234.26213074 170.53305054 C234.26852066 169.76623962 234.27491058 168.99942871 234.28149414 168.2093811 C234.36397224 165.20743843 234.65109617 162.59787538 235.69963074 159.77523804 C239.25489414 157.19080928 243.20647226 157.7815832 247.47306824 157.87680054 C248.42325333 157.88246033 249.37343842 157.88812012 250.35241699 157.89395142 C253.38923892 157.91635406 256.4248838 157.96655784 259.46134949 158.01742554 C261.51927516 158.0374855 263.57721932 158.05573715 265.63517761 158.07211304 C270.68185556 158.11623167 275.72765292 158.18528623 280.77384949 158.26742554 C281.06735291 157.31964233 281.36085632 156.37185913 281.66325378 155.39535522 C282.85562765 152.03710199 283.88899531 150.76608026 286.58634949 148.51742554 C287.2527948 147.94508179 287.91924011 147.37273804 288.60588074 146.78305054 C294.86207977 142.40934743 301.38516591 142.56075967 308.77384949 143.26742554 C314.96958229 144.94167696 319.30675109 148.95636079 322.77384949 154.26742554 C325.83307795 160.51160418 325.92495823 168.00763392 324.12150574 174.68148804 C321.5280495 180.44719762 317.09267012 184.64142617 311.44572449 187.40805054 C305.16808432 189.42717457 297.40189071 189.43324814 291.33634949 186.70492554 C287.3882524 184.35446943 284.2312249 181.14480682 281.77384949 177.26742554 C281.44384949 175.94742554 281.11384949 174.62742554 280.77384949 173.26742554 C270.87384949 173.26742554 260.97384949 173.26742554 250.77384949 173.26742554 C250.77384949 196.03742554 250.77384949 218.80742554 250.77384949 242.26742554 C252.42384949 242.59742554 254.07384949 242.92742554 255.77384949 243.26742554 C257.7426182 244.22656927 259.6806912 245.25081783 261.58634949 246.32992554 C263.05007996 247.15170288 263.05007996 247.15170288 264.54338074 247.99008179 C265.27943542 248.41160522 266.01549011 248.83312866 266.77384949 249.26742554 C266.77598701 248.43843498 266.77598701 248.43843498 266.77816772 247.59269714 C266.79787536 241.83329832 266.85217089 236.07495783 266.92643738 230.31600952 C266.94961471 228.1676493 266.96401246 226.01917549 266.96940613 223.87069702 C266.9786974 220.7795638 267.019693 217.69021641 267.06681824 214.59945679 C267.06288559 213.64094315 267.05895294 212.6824295 267.05490112 211.69487 C267.14584497 207.52546421 267.45653771 204.85283713 269.46452332 201.14828491 C274.87588034 198.07273386 280.32503345 198.70455946 286.43009949 198.84164429 C287.77859659 198.84884946 289.12711551 198.85268779 290.47563171 198.85331726 C296.18752908 198.86207315 301.89817872 198.93206095 307.60929871 199.02352905 C311.11026001 199.07725893 314.60971817 199.09206542 318.11105347 199.08393288 C320.08612117 199.09152331 322.06084736 199.1444065 324.03520203 199.19801331 C330.37844357 199.42210046 330.37844357 199.42210046 335.65444946 196.49559021 C336.913478 194.46445334 337.83105264 192.45676852 338.77384949 190.26742554 C340.87150574 188.42758179 340.87150574 188.42758179 342.83634949 187.32992554 C343.48732605 186.9496521 344.13830261 186.56937866 344.80900574 186.17758179 C350.77129673 183.41572532 357.10428029 183.59643189 363.33634949 185.32992554 C369.60383636 187.63558133 373.30465153 191.85035793 376.71134949 197.45492554 C378.58582233 204.18097516 379.09863683 211.23952832 376.08634949 217.70492554 C372.82177077 223.24551337 368.17485297 227.95532512 361.88713074 229.82992554 C355.09492216 231.23607593 348.93309574 230.41458426 342.77384949 227.26742554 C338.66595407 224.55994901 336.25941322 221.50208967 333.77384949 217.26742554 C333.77384949 216.60742554 333.77384949 215.94742554 333.77384949 215.26742554 C317.27384949 215.26742554 300.77384949 215.26742554 283.77384949 215.26742554 C284.10384949 227.14742554 284.43384949 239.02742554 284.77384949 251.26742554 C288.07384949 249.61742554 291.37384949 247.96742554 294.77384949 246.26742554 C303.13702842 243.70419161 311.29189574 243.46869713 319.18400574 247.49789429 C328.18187278 253.10090665 333.32477703 260.75398337 337.77384949 270.26742554 C337.77384949 270.92742554 337.77384949 271.58742554 337.77384949 272.26742554 C362.52384949 272.26742554 387.27384949 272.26742554 412.77384949 272.26742554 C412.75813904 266.99234009 412.74242859 261.71725464 412.72624207 256.28231812 C412.6765978 238.87989255 412.64326847 221.47746425 412.61841297 204.07498646 C412.6029384 193.52085069 412.58183756 182.96678195 412.54753113 172.41268921 C412.51764689 163.21467074 412.49827878 154.01670083 412.491584 144.81863517 C412.4876701 139.94748309 412.47845956 135.07646992 412.45665932 130.20536232 C412.43630961 125.62126194 412.43001263 121.03735781 412.43452644 116.45321655 C412.43370056 114.77018353 412.42772587 113.087144 412.41623306 111.40415001 C412.40131243 109.10665018 412.40489395 106.80989177 412.41308594 104.51237488 C412.41032056 103.22647367 412.40755518 101.94057245 412.404706 100.61570454 C412.80151955 97.01644698 413.59879545 95.13096866 415.77384949 92.26742554 C418.865587 90.72155678 421.36814501 90.97383032 424.77384949 91.26742554 C426.96866608 92.75723648 426.96866608 92.75723648 428.77384949 95.26742554 C429.16660593 98.21738494 429.31436368 100.79357665 429.28178406 103.74295044 C429.291144 105.03817985 429.291144 105.03817985 429.30069304 106.35957551 C429.31667182 109.25849705 429.30399953 112.15658342 429.29142761 115.05551147 C429.29684672 117.13176973 429.30396818 119.20802414 429.31266785 121.28427124 C429.33093375 126.92911514 429.3238189 132.57366722 429.3111515 138.21851635 C429.30103539 144.12449629 429.31041382 150.03045098 429.31669617 155.93643188 C429.32397889 165.8596343 429.31437081 175.78271774 429.29533386 185.7059021 C429.27358797 197.17345924 429.28059749 208.64073167 429.30263948 220.10828185 C429.32080424 229.9530168 429.32334579 239.79766612 429.31288481 249.64241242 C429.30665274 255.52242588 429.30580598 261.40230565 429.31903076 267.28231049 C429.33060331 272.81455265 429.32253746 278.34642887 429.29945374 283.87863159 C429.29417317 285.90709069 429.29566922 287.93558068 429.30450439 289.9640274 C429.31546979 292.73775328 429.30168398 295.51031399 429.28178406 298.28396606 C429.29516839 299.48224081 429.29516839 299.48224081 429.30882311 300.70472312 C429.21689274 307.33173141 427.17804305 312.47388889 422.84416199 317.50961304 C422.20220886 318.04844116 421.56025574 318.58726929 420.89884949 319.14242554 C420.26205261 319.69672241 419.62525574 320.25101929 418.96916199 320.82211304 C414.30017151 323.89600356 409.73612338 324.51449039 404.23698425 324.49105835 C402.9586824 324.49156189 401.68038055 324.49206543 400.36334229 324.49258423 C399.68761736 324.48865913 399.01189243 324.48473404 398.31569099 324.48069 C396.18338023 324.47039666 394.05164793 324.47589234 391.91934204 324.4861145 C385.86056646 324.51397539 379.80212251 324.52659684 373.74333191 324.49740601 C370.02723655 324.48062948 366.31218155 324.49305925 362.5961895 324.52385712 C361.18689849 324.52993718 359.77751458 324.52515601 358.3683033 324.5089798 C349.32720784 324.18157853 349.32720784 324.18157853 341.58976746 328.16732788 C341.11610748 328.69047577 340.64244751 329.21362366 340.1544342 329.75262451 C337.71821426 332.42568645 334.48391488 333.93041642 331.33634949 335.64242554 C330.70019714 335.99691772 330.0640448 336.35140991 329.40861511 336.71664429 C327.86763662 337.57403082 326.32131043 338.42179501 324.77384949 339.26742554 C322.35977683 355.93633139 322.35977683 355.93633139 326.31340027 371.52474976 C330.28000541 374.84652274 334.93674918 376.58207636 339.7396698 378.37826538 C345.39273393 380.84927589 349.23703152 386.55526793 351.77384949 392.01742554 C355.08839813 402.89261127 352.35859419 412.32369877 347.33952332 422.04574585 C345.7496507 424.9542261 344.11557981 427.83259762 342.46134949 430.70492554 C341.64633972 432.14448608 341.64633972 432.14448608 340.81486511 433.61312866 C325.78488617 459.96439045 325.78488617 459.96439045 311.27384949 463.95492554 C300.12633466 465.34836489 291.80329528 461.78703709 282.6837616 455.78500366 C279.21300173 453.60829944 279.21300173 453.60829944 275.25041199 453.79476929 C274.43314636 454.28074585 273.61588074 454.76672241 272.77384949 455.26742554 C271.76709167 455.86297241 270.76033386 456.45851929 269.72306824 457.07211304 C268.64670105 457.75531616 267.57033386 458.43851929 266.46134949 459.14242554 C261.68205036 462.14450126 256.88210487 464.86354065 251.77384949 467.26742554 C251.72486511 468.37859741 251.67588074 469.48976929 251.62541199 470.63461304 C250.38652886 496.36459465 250.38652886 496.36459465 239.89884949 506.07992554 C232.8711333 512.26960862 226.06694789 512.73448126 217.06681824 512.73617554 C215.94624527 512.74378906 214.8256723 512.75140259 213.67114258 512.75924683 C211.30688192 512.7700224 208.94257376 512.77291132 206.57829285 512.7684021 C202.98315465 512.76743142 199.39016351 512.80905232 195.79533386 512.85336304 C193.48999973 512.85857195 191.18465825 512.8612582 188.87931824 512.86117554 C187.81545395 512.8775708 186.75158966 512.89396606 185.65548706 512.91085815 C176.53893943 512.82750274 169.71263292 510.09595788 162.89884949 504.01742554 C157.63456721 498.3061759 155.52356396 491.9081326 154.77384949 484.26742554 C154.84443749 482.90404971 154.93902665 481.54174662 155.05509949 480.18148804 C155.35039774 475.71806005 155.5979528 471.4418558 153.77384949 467.26742554 C149.68477901 463.23330897 144.17331963 461.30580078 138.90568542 459.25765991 C136.66455122 458.21665667 135.00382345 456.96562802 133.09416199 455.40805054 C129.98914027 452.88733799 129.98914027 452.88733799 126.69963074 453.73617554 C123.70060368 455.30575979 120.82315558 456.95916251 117.96134949 458.76742554 C109.26376764 463.90885323 101.76067335 465.39738373 91.77384949 463.26742554 C79.01907853 459.05986056 72.7854474 448.34683866 66.71134949 437.07992554 C66.1079071 435.97221802 65.50446472 434.8645105 64.88273621 433.72323608 C63.69990854 431.54428417 62.52228114 429.36249924 61.35050964 427.17758179 C60.04359304 424.76531082 58.69943003 422.38660385 57.31681824 420.01742554 C52.46314499 411.31837775 50.9125072 403.46389426 53.44572449 393.66976929 C54.35703629 391.33952901 55.4212304 389.37013339 56.77384949 387.26742554 C57.17861511 386.61644897 57.58338074 385.96547241 58.00041199 385.29476929 C60.8820709 381.41916919 63.48962709 379.26600799 68.00822449 377.59945679 C75.3307498 374.7296528 75.3307498 374.7296528 80.77384949 369.26742554 C82.99584236 359.5612675 81.79307898 349.07232103 80.77384949 339.26742554 C79.12836121 338.37990601 79.12836121 338.37990601 77.44963074 337.47445679 C75.99495567 336.67673175 74.54054235 335.87852927 73.08634949 335.07992554 C72.36511902 334.69256226 71.64388855 334.30519897 70.90080261 333.90609741 C70.19504089 333.51615601 69.48927917 333.1262146 68.76213074 332.72445679 C68.11800232 332.37359009 67.4738739 332.02272339 66.81022644 331.66122437 C64.77384949 330.26742554 64.77384949 330.26742554 62.54605103 327.71755981 C59.19395133 324.75489846 57.78708719 324.65016171 53.38224792 324.67147827 C51.47436493 324.66137978 51.47436493 324.66137978 49.52793884 324.65107727 C48.85296104 324.6592491 48.17798325 324.66742092 47.48255157 324.67584038 C45.35355663 324.70137512 43.22648744 324.6964262 41.09739685 324.6839447 C36.57266777 324.66323191 32.04853882 324.68282986 27.52384949 324.70492554 C22.29064755 324.72610864 17.05807221 324.73041962 11.82488251 324.7044239 C9.74131254 324.70109218 7.65897176 324.72218678 5.57554626 324.74482727 C-3.02696454 324.72085085 -9.83244576 323.95696392 -16.56599426 318.30258179 C-17.09322083 317.65160522 -17.62044739 317.00062866 -18.16365051 316.32992554 C-18.70892395 315.6815271 -19.25419739 315.03312866 -19.81599426 314.36508179 C-22.47781195 310.40553582 -23.47577256 306.89321715 -23.48341942 302.14549541 C-23.48986831 301.13028905 -23.4963172 300.11508268 -23.50296152 299.06911248 C-23.49986431 297.96075864 -23.49676711 296.8524048 -23.49357605 295.71046448 C-23.49810716 294.5276067 -23.50263828 293.34474891 -23.50730669 292.12604696 C-23.51777748 288.84629008 -23.51927643 285.56667107 -23.51691794 282.28690279 C-23.51650974 278.74827464 -23.52754931 275.20967919 -23.53703308 271.67106628 C-23.55364329 264.73945146 -23.55914264 257.80787065 -23.56025784 250.87623759 C-23.56120832 245.24140865 -23.56531863 239.60659092 -23.57165909 233.97176552 C-23.58927171 217.99394263 -23.59849795 202.01614661 -23.59699814 186.03831395 C-23.59691823 185.17701403 -23.59683832 184.31571412 -23.59675598 183.42831421 C-23.59667422 182.56596192 -23.59659246 181.70360962 -23.59650822 180.81512544 C-23.59569536 166.84017132 -23.61483303 152.86532499 -23.64303271 138.89040204 C-23.67176336 124.53903994 -23.6855729 110.18773041 -23.68384516 95.83633882 C-23.68318131 87.77993201 -23.68867133 79.7236382 -23.71020126 71.66725731 C-23.72841547 64.80766508 -23.73275851 57.94823706 -23.71918242 51.08863112 C-23.71265383 47.58985492 -23.71253112 44.09139375 -23.72988892 40.59264755 C-23.74529485 36.79659537 -23.73606247 33.00137152 -23.72062683 29.20533752 C-23.73605752 27.55284501 -23.73605752 27.55284501 -23.75179994 25.86696881 C-23.68323007 18.24008033 -22.42498561 12.91778607 -17.26130676 7.02523804 C-16.6103302 6.48640991 -15.95935364 5.94758179 -15.28865051 5.39242554 C-14.64025208 4.83812866 -13.99185364 4.28383179 -13.32380676 3.71273804 C-8.98053507 0.72016722 -5.22772448 0.0161025 0 0 Z M-5.84923851 19.0688253 C-7.39997366 21.54497967 -7.59961925 22.79030993 -7.595294 25.67957687 C-7.60126714 26.56187336 -7.60724029 27.44416984 -7.61339444 28.35320258 C-7.60465591 29.31817924 -7.59591739 30.28315589 -7.58691406 31.27737427 C-7.58947734 32.30576361 -7.59204061 33.33415295 -7.59468156 34.39370561 C-7.59963493 37.85014261 -7.58310055 41.30614576 -7.56672668 44.76254272 C-7.56588075 47.23600759 -7.5663549 49.7094732 -7.5680542 52.18293762 C-7.56873803 57.51352295 -7.5602122 62.84397245 -7.54334068 68.1745224 C-7.51896323 75.88158626 -7.51114671 83.58859686 -7.50737671 91.2956951 C-7.50081025 103.79981122 -7.48084382 116.30386864 -7.45246887 128.80795288 C-7.42493333 140.95475979 -7.40369728 153.10155075 -7.39094543 165.24838257 C-7.39015726 165.99706756 -7.38936909 166.74575256 -7.38855704 167.51712498 C-7.38464194 171.27304423 -7.38085081 175.02896359 -7.37712133 178.78488302 C-7.34601936 209.94578254 -7.29071303 241.10657291 -7.22615051 272.26742554 C17.52384949 272.26742554 42.27384949 272.26742554 67.77384949 272.26742554 C70.74384949 266.98742554 73.71384949 261.70742554 76.77384949 256.26742554 C83.2301278 249.51768003 89.60634498 245.85769734 99.05119324 245.21664429 C108.18095274 245.38692675 115.5169605 248.78445842 122.9662323 253.74960327 C126.3439992 255.91472459 126.3439992 255.91472459 130.22306824 255.77523804 C131.06482605 255.27765991 131.90658386 254.78008179 132.77384949 254.26742554 C133.32838806 253.94572388 133.88292664 253.62402222 134.45426941 253.29257202 C137.02078137 251.78339907 139.54375533 250.20687952 142.07072449 248.63265991 C146.19419841 246.10387641 150.28348351 244.07169404 154.77384949 242.26742554 C154.84732605 240.49238647 154.84732605 240.49238647 154.92228699 238.68148804 C156.12098165 212.21498195 156.12098165 212.21498195 166.08634949 202.95492554 C172.62826654 197.8436188 178.55287348 197.08480681 186.56291199 196.69320679 C187.3528656 196.65086914 188.14281921 196.60853149 188.95671082 196.56491089 C190.89554012 196.46159459 192.83466995 196.36394518 194.77384949 196.26742554 C194.97197348 190.94741526 195.11693567 185.62956008 195.21330261 180.30673218 C195.25347688 178.4974324 195.30803074 176.68839146 195.37736511 174.87997437 C195.47470549 172.27540342 195.51982881 169.67426761 195.55509949 167.06820679 C195.59638977 166.2628096 195.63768005 165.45741241 195.68022156 164.62760925 C195.68210706 162.2548089 195.59832371 160.49641869 194.77384949 158.26742554 C192.85093951 156.5473373 190.97613435 155.4171631 188.67605591 154.25662231 C186.25500024 152.99761045 185.15697703 151.56889583 183.83634949 149.20492554 C183.26593933 148.22846069 183.26593933 148.22846069 182.68400574 147.23226929 C179.99586154 141.42910821 179.92419257 135.15031204 181.96134949 129.14242554 C184.68439895 122.66563967 188.3871639 119.27137007 194.77384949 116.26742554 C194.85067499 109.9544363 194.90277036 103.64157005 194.93864441 97.32821655 C194.95361876 95.18591812 194.97400544 93.04364975 195.00016785 90.90145874 C195.25334383 69.61978382 193.33160162 51.3697847 177.95890808 35.32723999 C162.55997032 19.88900586 145.42620321 15.20142506 124.14483643 15.12078857 C122.94499619 15.12124176 121.74515594 15.12169495 120.50895691 15.12216187 C119.21830322 15.11880325 117.92764954 15.11544464 116.59788513 15.11198425 C113.08791812 15.10322271 109.57797554 15.1008097 106.06799865 15.10016847 C103.87185081 15.09945436 101.67570907 15.09731342 99.47956276 15.09467125 C91.8098321 15.08544922 84.14011872 15.08133308 76.47038269 15.0821228 C69.33115019 15.08272522 62.19199284 15.07213341 55.05277938 15.05637914 C48.9081732 15.04330461 42.76359163 15.03793875 36.61897165 15.03857821 C32.95525571 15.03883289 29.29160691 15.03599708 25.62790489 15.02540016 C21.54914046 15.01392122 17.4705455 15.01846538 13.39176941 15.02450562 C12.18180801 15.01888611 10.97184662 15.0132666 9.72521973 15.00747681 C8.61371552 15.0116713 7.5022113 15.01586578 6.35702515 15.02018738 C5.39383456 15.01964261 4.43064398 15.01909784 3.4382658 15.01853657 C-0.44817217 15.38157726 -3.19171739 16.11935002 -5.84923851 19.0688253 Z M197.96134949 132.39242554 C195.47045001 135.08002517 195.47045001 135.08002517 195.71134949 138.39242554 C196.58678281 141.28388203 196.58678281 141.28388203 198.46134949 143.20492554 C201.67328883 144.68068145 203.43859751 144.33186766 206.77384949 143.26742554 C208.85241029 141.69046922 208.85241029 141.69046922 209.77384949 139.26742554 C209.70161954 135.72815794 209.4457994 133.96254614 206.96134949 131.39242554 C203.17129367 129.44325397 201.28480338 129.88137148 197.96134949 132.39242554 Z M296.89884949 160.32992554 C295.13111675 163.37435414 295.40561033 165.83052674 295.77384949 169.26742554 C296.75433887 171.33145238 296.75433887 171.33145238 298.77384949 172.26742554 C302.38966811 172.80595172 304.11496438 172.68978779 307.21134949 170.70492554 C309.10826484 168.24119437 309.10826484 168.24119437 308.71134949 164.64242554 C308.09876499 161.0122563 308.09876499 161.0122563 304.77384949 159.26742554 C301.68629019 158.94580478 299.63369387 158.78018039 296.89884949 160.32992554 Z M349.77384949 202.26742554 C348.35343128 205.10826195 348.45932676 207.12219831 348.77384949 210.26742554 C350.25378105 212.83081242 350.25378105 212.83081242 352.77384949 214.26742554 C355.95971145 214.20240795 357.95415402 213.786566 360.64884949 212.07992554 C362.38007256 209.29073281 362.2976919 207.47596031 361.77384949 204.26742554 C359.56896689 201.8032642 359.56896689 201.8032642 356.77384949 200.26742554 C353.64484736 200.26742554 352.39966087 200.69193871 349.77384949 202.26742554 Z M173.52384949 217.64242554 C170.63512322 221.97551494 170.65285731 226.23013495 170.59806824 231.33773804 C170.57422058 232.48113647 170.55037292 233.62453491 170.52580261 234.80258179 C170.48269689 237.20343987 170.45152153 239.60454069 170.43205261 242.00570679 C170.40433777 243.1465271 170.37662292 244.28734741 170.34806824 245.46273804 C170.33348572 246.50446167 170.3189032 247.5461853 170.30387878 248.61947632 C169.77384949 251.26742554 169.77384949 251.26742554 167.99137878 253.01083374 C165.92605504 254.18117628 163.89627713 255.23273325 161.71916199 256.17758179 C160.94604675 256.5231311 160.17293152 256.86868042 159.37638855 257.22470093 C158.55880066 257.58942505 157.74121277 257.95414917 156.89884949 258.32992554 C149.76701591 261.5722255 143.45347662 265.17238015 137.40324402 270.1680603 C134.79959996 272.22958584 132.81518002 273.2591194 129.54728699 273.91586304 C124.01237437 272.96472898 119.88553934 270.25221108 115.14884949 267.32992554 C113.30631675 266.21033099 111.46007681 265.09680958 109.60978699 263.99008179 C108.80073914 263.49258423 107.99169128 262.99508667 107.15812683 262.48251343 C103.99373775 260.86986091 101.20628396 260.00601292 97.67619324 260.65023804 C97.0277948 260.89515991 96.37939636 261.14008179 95.71134949 261.39242554 C94.73488464 261.73660522 94.73488464 261.73660522 93.73869324 262.08773804 C89.25458857 264.77998378 86.77430638 269.76662597 84.24259949 274.19711304 C83.59677917 275.3224646 82.95095886 276.44781616 82.28556824 277.60726929 C81.61489716 278.78559884 80.94432493 279.96398466 80.27384949 281.14242554 C79.60366546 282.31322115 78.93309558 283.48379597 78.26213074 284.65414429 C76.98563576 286.88355168 75.71267804 289.11498925 74.44377136 291.34872437 C73.45536301 293.07627141 72.45581676 294.79765369 71.43205261 296.50448608 C68.5449111 301.32475154 68.07259548 303.74505021 68.77384949 309.26742554 C72.79903589 318.01783077 83.07244684 322.12275434 91.16398621 326.55209351 C95.66664554 329.05301764 95.66664554 329.05301764 96.77384949 331.26742554 C96.88341761 332.72658438 96.93286219 334.19049979 96.95085144 335.65365601 C96.96368668 336.56154877 96.97652191 337.46944153 96.98974609 338.40484619 C96.99713303 339.38816925 97.00451996 340.37149231 97.01213074 341.38461304 C97.02020248 342.39331451 97.02827423 343.40201599 97.03659058 344.44128418 C97.05043541 346.578138 97.06115577 348.71501398 97.0690155 350.85189819 C97.08624369 354.12234249 97.13012846 357.39178006 97.17424011 360.66195679 C97.1843655 362.73616809 97.19288208 364.810388 97.19963074 366.88461304 C97.21713882 367.86388763 97.23464691 368.84316223 97.25268555 369.85211182 C97.23103161 376.61865141 97.23103161 376.61865141 95.02262878 379.75253296 C92.8342717 381.22672205 90.68558043 382.62663478 88.36759949 383.88851929 C87.12816589 384.57977905 87.12816589 384.57977905 85.86369324 385.28500366 C84.1387748 386.23071686 82.41221018 387.17343379 80.68400574 388.11312866 C75.39114163 391.07333425 71.56296004 393.68920444 68.77384949 399.26742554 C68.13745068 406.0828128 69.65792846 409.92846589 73.14884949 415.70492554 C73.59712097 416.47409302 74.04539246 417.2432605 74.50724792 418.03573608 C75.44631178 419.64338326 76.39238194 421.24695677 77.34513855 422.8465271 C78.74967217 425.22645796 80.10711999 427.62766184 81.45353699 430.04086304 C82.30961776 431.55427442 83.16636361 433.06730983 84.02384949 434.57992554 C84.41105164 435.27851685 84.79825378 435.97710815 85.19718933 436.6968689 C88.46865126 442.35241735 91.66821233 446.31350004 98.15666199 448.30648804 C102.80499001 448.25629011 105.64416334 446.85749646 109.64884949 444.64242554 C110.34993835 444.27504272 111.05102722 443.90765991 111.77336121 443.52914429 C116.19498212 441.1960511 120.55215885 438.74749598 124.78166199 436.07992554 C127.72556474 434.879275 129.60496723 434.83670368 132.77384949 435.26742554 C135.43061705 436.6715125 137.75865205 438.45456046 140.14884949 440.26742554 C146.91476895 445.17539574 153.80365464 449.0425296 161.34806824 452.61117554 C162.47857605 453.15773804 163.60908386 453.70430054 164.77384949 454.26742554 C165.6563739 454.67831421 166.53889832 455.08920288 167.44816589 455.51254272 C169.77384949 457.26742554 169.77384949 457.26742554 170.40153503 459.88363647 C170.40451599 460.91263062 170.40749695 461.94162476 170.41056824 463.00180054 C170.43054871 464.13359741 170.45052917 465.26539429 170.47111511 466.43148804 C170.46628113 468.2065271 170.46628113 468.2065271 170.46134949 470.01742554 C169.96424409 481.75457525 169.96424409 481.75457525 174.32463074 492.22836304 C174.90599792 492.69500366 175.48736511 493.16164429 176.08634949 493.64242554 C176.94679871 494.3655896 176.94679871 494.3655896 177.82463074 495.10336304 C182.39074784 497.83022255 187.72466484 497.42762176 192.89103699 497.43539429 C193.66641815 497.43872269 194.44179932 497.44205109 195.24067688 497.44548035 C196.87624013 497.45052781 198.51181361 497.45288935 200.14738464 497.45272827 C202.63372481 497.45491225 205.11961909 497.473084 207.60588074 497.49203491 C209.20093132 497.4949699 210.79598399 497.49695399 212.39103699 497.49789429 C213.12667877 497.5050798 213.86232056 497.51226532 214.62025452 497.51966858 C219.9751456 497.49626922 225.38530135 497.15637695 229.73478699 493.71664429 C230.20142761 493.1352771 230.66806824 492.55390991 231.14884949 491.95492554 C231.63095886 491.38129272 232.11306824 490.80765991 232.60978699 490.21664429 C235.00811061 486.20065942 234.89331534 481.76678286 234.91447449 477.19711304 C234.93381042 476.0537146 234.95314636 474.91031616 234.97306824 473.73226929 C235.0070305 471.33139862 235.02515994 468.93025375 235.02775574 466.52914429 C235.05224792 465.38832397 235.07674011 464.24750366 235.10197449 463.07211304 C235.11599304 461.50952759 235.11599304 461.50952759 235.1302948 459.91537476 C235.77384949 457.26742554 235.77384949 457.26742554 238.09513855 455.51254272 C239.42110046 454.89620972 239.42110046 454.89620972 240.77384949 454.26742554 C241.93916199 453.69765991 243.10447449 453.12789429 244.30509949 452.54086304 C244.94487732 452.23551636 245.58465515 451.93016968 246.24382019 451.61557007 C254.71278927 447.5557612 262.19713228 442.80912158 269.77384949 437.26742554 C273.28512682 434.92657398 274.64206145 434.88955731 278.77384949 435.26742554 C281.37931824 436.3531189 281.37931824 436.3531189 283.96134949 437.85726929 C284.90752136 438.39416382 285.85369324 438.93105835 286.82853699 439.48422241 C287.80049011 440.05205444 288.77244324 440.61988647 289.77384949 441.20492554 C291.70662162 442.32639478 293.64400513 443.4399617 295.58634949 444.54476929 C296.4384198 445.04226685 297.29049011 445.5397644 298.16838074 446.05233765 C302.48864742 448.06713968 305.66380126 448.56475988 310.27384949 447.32992554 C319.01255764 443.01924039 323.49440798 431.05795538 328.08634949 422.89242554 C328.82088224 421.59657288 329.55590487 420.30099778 330.29142761 419.00570679 C335.94686383 409.7759071 335.94686383 409.7759071 336.77384949 399.26742554 C332.74866308 390.51702031 322.47525213 386.41209673 314.38371277 381.98275757 C309.88105343 379.48183343 309.88105343 379.48183343 308.77384949 377.26742554 C308.66925897 375.80280605 308.62519097 374.33362215 308.61271667 372.86532593 C308.60310913 371.95420547 308.59350159 371.04308502 308.58360291 370.10435486 C308.57722809 368.62466469 308.57722809 368.62466469 308.57072449 367.11508179 C308.56502441 366.10400864 308.55932434 365.09293549 308.55345154 364.05122375 C308.54399533 361.91016692 308.5374651 359.76909549 308.53361511 357.62802124 C308.52389933 354.34675859 308.49287736 351.06611948 308.46134949 347.78500366 C308.45482062 345.70753343 308.4495697 343.63005872 308.44572449 341.55258179 C308.43337769 340.5681459 308.42103088 339.58371002 308.40830994 338.56944275 C308.41131104 337.65517014 308.41431213 336.74089752 308.41740417 335.79891968 C308.41375854 334.99442886 308.41011292 334.18993805 308.40635681 333.36106873 C308.86592303 330.7428732 309.73451897 329.91678597 311.77384949 328.26742554 C313.25657434 327.31114938 314.76924974 326.40050154 316.30119324 325.52523804 C317.17582214 325.01605835 318.05045105 324.50687866 318.95158386 323.98226929 C320.78512028 322.92600698 322.62105084 321.8738893 324.45939636 320.82601929 C329.8324413 317.68680098 333.91365808 314.98780836 336.77384949 309.26742554 C338.46678031 298.14245153 328.69783465 286.39506118 323.27384949 277.26742554 C322.31672058 275.61033569 322.31672058 275.61033569 321.34025574 273.91976929 C317.39725019 267.28358612 314.70816029 262.8529248 307.17228699 260.43148804 C299.31399048 259.89394984 291.48802435 266.07263497 285.21574402 270.26889038 C280.95790778 272.99413296 277.96480123 274.0463656 272.77384949 273.26742554 C269.84416199 271.61508179 269.84416199 271.61508179 266.89884949 269.32992554 C261.77149273 265.5125445 256.50868182 262.33930736 250.83634949 259.39242554 C249.77214783 258.83953857 249.77214783 258.83953857 248.68644714 258.27548218 C245.58763065 256.68064319 242.48170241 255.12881319 239.33244324 253.63461304 C236.77384949 252.26742554 236.77384949 252.26742554 235.77384949 250.26742554 C235.64402025 248.46424172 235.57133582 246.65678307 235.52775574 244.84945679 C235.49488464 243.75955444 235.46201355 242.6696521 235.42814636 241.54672241 C235.36746792 239.25514292 235.31011764 236.96347262 235.25627136 234.67172241 C235.1091946 224.28186629 235.1091946 224.28186629 230.33634949 215.39242554 C227.02289946 212.64468649 224.64214604 212.14374854 220.47355652 212.10629272 C219.60900848 212.09668518 218.74446045 212.08707764 217.85371399 212.07717896 C216.45679825 212.07080414 216.45679825 212.07080414 215.03166199 212.06430054 C214.07113922 212.05860046 213.11061646 212.05290039 212.12098694 212.04702759 C210.08845623 212.03758096 208.05591022 212.03104494 206.02336121 212.02719116 C202.91778291 212.01748471 199.81286623 211.98645768 196.70744324 211.95492554 C194.73218675 211.94839537 192.75692553 211.94314495 190.78166199 211.93930054 C189.85443329 211.92695374 188.92720459 211.91460693 187.97187805 211.90188599 C181.55863617 211.92398706 178.05709837 212.8573295 173.52384949 217.64242554 Z M-7.22615051 288.26742554 C-7.22615051 293.21742554 -7.22615051 298.16742554 -7.22615051 303.26742554 C-3.05150589 308.33504201 -3.05150589 308.33504201 0.46313477 308.86869812 C1.4291008 308.85759506 2.39506683 308.846492 3.39030457 308.83505249 C4.49106827 308.83467484 5.59183197 308.83429718 6.72595215 308.83390808 C8.4918293 308.79519844 8.4918293 308.79519844 10.29338074 308.75570679 C11.50708847 308.74863205 12.7207962 308.74155731 13.97128296 308.73426819 C17.84360161 308.70630443 21.71446865 308.64355645 25.58634949 308.57992554 C28.21328172 308.55484549 30.84023663 308.53203182 33.46720886 308.51156616 C39.90325009 308.45647084 46.33844608 308.37282209 52.77384949 308.26742554 C52.8834198 307.49398804 52.99299011 306.72055054 53.10588074 305.92367554 C53.34371277 304.36133179 53.34371277 304.36133179 53.58634949 302.76742554 C53.7371698 301.74648804 53.88799011 300.72555054 54.04338074 299.67367554 C54.77384949 296.26742554 54.77384949 296.26742554 57.77384949 288.26742554 C36.32384949 288.26742554 14.87384949 288.26742554 -7.22615051 288.26742554 Z M347.77384949 288.26742554 C349.09384949 291.89742554 350.41384949 295.52742554 351.77384949 299.26742554 C352.52384949 304.45492554 352.52384949 304.45492554 352.77384949 308.26742554 C360.51496393 308.39420652 368.25581065 308.48176966 375.99772644 308.54208374 C378.63129176 308.56722711 381.2647873 308.60134638 383.89811707 308.6446228 C387.68369257 308.70527764 391.46834546 308.73363824 395.25431824 308.75570679 C396.43156967 308.78151321 397.60882111 308.80731964 398.82174683 308.83390808 C399.92251053 308.83428574 401.02327423 308.83466339 402.15739441 308.83505249 C403.12336044 308.84615555 404.08932648 308.85725861 405.08456421 308.86869812 C408.59920486 308.33504201 408.59920486 308.33504201 412.77384949 303.26742554 C412.77384949 298.31742554 412.77384949 293.36742554 412.77384949 288.26742554 C391.32384949 288.26742554 369.87384949 288.26742554 347.77384949 288.26742554 Z " fill="#000000" transform="translate(53.22615051269531,-0.267425537109375)"/>
<path d="M0 0 C1.05703125 0.37382812 2.1140625 0.74765625 3.203125 1.1328125 C27.0205841 10.3544441 44.78338226 27.56676899 55.75 50.5 C56.52554963 52.32267218 57.27555119 54.15642059 58 56 C58.55494141 57.40378906 58.55494141 57.40378906 59.12109375 58.8359375 C67.50612146 82.73173076 64.5827234 108.33153704 54.21484375 131.00390625 C45.94980443 148.03921457 32.33303952 161.59254742 16 171 C15.22269531 171.45117188 14.44539062 171.90234375 13.64453125 172.3671875 C8.53891328 175.1209714 3.25704951 177.04316178 -2.25 178.8125 C-2.92377686 179.03180176 -3.59755371 179.25110352 -4.29174805 179.47705078 C-8.29543667 180.70415535 -11.81781219 181.41821878 -16 181 C-19.32274404 178.54405875 -20.77618008 177.0743356 -21.625 173 C-20.7714217 168.90282415 -19.20890954 167.66991301 -16 165 C-13.20235178 163.73739497 -10.32216624 162.9057315 -7.375 162.0625 C13.74127237 155.47598677 28.5190702 142.39852763 39 123 C48.2634689 102.57826175 49.05731408 81.58254521 41.47265625 60.53125 C32.88676631 39.94333355 17.42332479 25.44253667 -3 17 C-21.49556431 9.78587364 -42.91702307 11.0163435 -61.0078125 18.66015625 C-80.48108602 27.3909087 -93.83712467 42.23948102 -102 62 C-109.18659181 83.05736933 -108.17668142 104.19804118 -98.43359375 124.21875 C-88.26359415 142.52946853 -73.21122867 155.79763883 -53.2265625 162.2109375 C-51.0529156 162.82151247 -48.86863966 163.39665531 -46.671875 163.91796875 C-43.28260533 165.29052386 -41.97118597 166.96032069 -40 170 C-39.39988095 173.67572916 -39.47324855 175.25039216 -41.625 178.3125 C-44.57417547 180.40796678 -46.39278353 180.7071789 -50 181 C-52.62693432 180.45177023 -54.97522457 179.84426909 -57.5 179 C-58.19778564 178.77143311 -58.89557129 178.54286621 -59.61450195 178.30737305 C-83.73562046 170.10121933 -102.69126643 153.58109286 -114.27294922 130.88818359 C-125.01577667 108.79196875 -127.05199187 83.17919121 -119.375 59.75 C-110.3555309 34.0787748 -93.20966727 15.13863362 -68.5625 3.25 C-47.54983545 -5.88325801 -21.71234817 -7.79809688 0 0 Z " fill="#000000" transform="translate(286,265)"/>
<path d="M0 0 C4.10776186 0.85578372 5.42591033 2.33516681 8 5.625 C8.58844184 8.42887877 8.47798997 11.08852657 8.3125 13.9375 C8.28994141 14.67806641 8.26738281 15.41863281 8.24414062 16.18164062 C8.1855815 17.99697357 8.09590886 19.81125681 8 21.625 C11.3 21.625 14.6 21.625 18 21.625 C17.94199219 20.52800781 17.88398438 19.43101562 17.82421875 18.30078125 C17.77730312 16.84639686 17.73180489 15.39196626 17.6875 13.9375 C17.64560547 13.21626953 17.60371094 12.49503906 17.56054688 11.75195312 C17.46493645 7.56421662 17.64954541 6.07290093 20.33203125 2.64453125 C23 0.625 23 0.625 26 0 C30.10776186 0.85578372 31.42591033 2.33516681 34 5.625 C34.58844184 8.42887877 34.47798997 11.08852657 34.3125 13.9375 C34.28994141 14.67806641 34.26738281 15.41863281 34.24414062 16.18164062 C34.1855815 17.99697357 34.09590886 19.81125681 34 21.625 C35.175625 21.79 36.35125 21.955 37.5625 22.125 C42.24879139 23.29240355 44.56057288 25.78165381 47.65234375 29.359375 C49.28159246 32.09840182 49.64517262 34.48095993 50 37.625 C51.64548828 37.53798828 51.64548828 37.53798828 53.32421875 37.44921875 C54.77860314 37.40230312 56.23303374 37.35680489 57.6875 37.3125 C58.40873047 37.27060547 59.12996094 37.22871094 59.87304688 37.18554688 C64.06078338 37.08993645 65.55209907 37.27454541 68.98046875 39.95703125 C71 42.625 71 42.625 71.625 45.625 C70.76921628 49.73276186 69.28983319 51.05091033 66 53.625 C63.19612123 54.21344184 60.53647343 54.10298997 57.6875 53.9375 C56.94693359 53.91494141 56.20636719 53.89238281 55.44335938 53.86914062 C53.62802643 53.8105815 51.81374319 53.72090886 50 53.625 C50 56.925 50 60.225 50 63.625 C51.64548828 63.53798828 51.64548828 63.53798828 53.32421875 63.44921875 C54.77860314 63.40230312 56.23303374 63.35680489 57.6875 63.3125 C58.40873047 63.27060547 59.12996094 63.22871094 59.87304688 63.18554688 C64.06078338 63.08993645 65.55209907 63.27454541 68.98046875 65.95703125 C71 68.625 71 68.625 71.625 71.625 C70.76921628 75.73276186 69.28983319 77.05091033 66 79.625 C63.19612123 80.21344184 60.53647343 80.10298997 57.6875 79.9375 C56.94693359 79.91494141 56.20636719 79.89238281 55.44335938 79.86914062 C53.62802643 79.8105815 51.81374319 79.72090886 50 79.625 C49.773125 80.841875 49.54625 82.05875 49.3125 83.3125 C48.22085939 87.63325932 46.53768142 89.81093523 43 92.625 C39.70559244 94.53575639 37.81633363 95.625 34 95.625 C34.05800781 96.72199219 34.11601562 97.81898438 34.17578125 98.94921875 C34.22269688 100.40360314 34.26819511 101.85803374 34.3125 103.3125 C34.35439453 104.03373047 34.39628906 104.75496094 34.43945312 105.49804688 C34.53506355 109.68578338 34.35045459 111.17709907 31.66796875 114.60546875 C29 116.625 29 116.625 26 117.25 C21.89223814 116.39421628 20.57408967 114.91483319 18 111.625 C17.41155816 108.82112123 17.52201003 106.16147343 17.6875 103.3125 C17.71005859 102.57193359 17.73261719 101.83136719 17.75585938 101.06835938 C17.8144185 99.25302643 17.90409114 97.43874319 18 95.625 C14.7 95.625 11.4 95.625 8 95.625 C8.08701172 97.27048828 8.08701172 97.27048828 8.17578125 98.94921875 C8.22269688 100.40360314 8.26819511 101.85803374 8.3125 103.3125 C8.35439453 104.03373047 8.39628906 104.75496094 8.43945312 105.49804688 C8.53506355 109.68578338 8.35045459 111.17709907 5.66796875 114.60546875 C3 116.625 3 116.625 0 117.25 C-4.10776186 116.39421628 -5.42591033 114.91483319 -8 111.625 C-8.58844184 108.82112123 -8.47798997 106.16147343 -8.3125 103.3125 C-8.28994141 102.57193359 -8.26738281 101.83136719 -8.24414062 101.06835938 C-8.1855815 99.25302643 -8.09590886 97.43874319 -8 95.625 C-8.92425781 95.49609375 -9.84851563 95.3671875 -10.80078125 95.234375 C-15.65766766 94.30925378 -18.82026249 92.17086295 -21.8125 88.25 C-23.11827155 85.36355764 -23.5315511 82.74512754 -24 79.625 C-25.09699219 79.68300781 -26.19398438 79.74101562 -27.32421875 79.80078125 C-28.77860314 79.84769688 -30.23303374 79.89319511 -31.6875 79.9375 C-32.40873047 79.97939453 -33.12996094 80.02128906 -33.87304688 80.06445312 C-38.06078338 80.16006355 -39.55209907 79.97545459 -42.98046875 77.29296875 C-45 74.625 -45 74.625 -45.625 71.625 C-44.76921628 67.51723814 -43.28983319 66.19908967 -40 63.625 C-37.19612123 63.03655816 -34.53647343 63.14701003 -31.6875 63.3125 C-30.94693359 63.33505859 -30.20636719 63.35761719 -29.44335938 63.38085938 C-27.62802643 63.4394185 -25.81374319 63.52909114 -24 63.625 C-24 60.325 -24 57.025 -24 53.625 C-25.18078125 53.68300781 -26.3615625 53.74101562 -27.578125 53.80078125 C-29.13537711 53.84768643 -30.69267201 53.89318579 -32.25 53.9375 C-33.02730469 53.97939453 -33.80460938 54.02128906 -34.60546875 54.06445312 C-40.39348125 54.18812861 -40.39348125 54.18812861 -43.51171875 51.29296875 C-45.34947476 47.99851375 -45.69650366 46.33968619 -45 42.625 C-43.00828197 39.98867556 -41.44229529 37.92765161 -38.08959961 37.22412109 C-35.93497335 37.13349059 -33.84018256 37.18745588 -31.6875 37.3125 C-30.94693359 37.33505859 -30.20636719 37.35761719 -29.44335938 37.38085938 C-27.62802643 37.4394185 -25.81374319 37.52909114 -24 37.625 C-23.7525 35.8615625 -23.7525 35.8615625 -23.5 34.0625 C-22.33259645 29.37620861 -19.84334619 27.06442712 -16.265625 23.97265625 C-13.52659818 22.34340754 -11.14404007 21.97982738 -8 21.625 C-8.05800781 20.52800781 -8.11601562 19.43101562 -8.17578125 18.30078125 C-8.22269688 16.84639686 -8.26819511 15.39196626 -8.3125 13.9375 C-8.35439453 13.21626953 -8.39628906 12.49503906 -8.43945312 11.75195312 C-8.53506355 7.56421662 -8.35045459 6.07290093 -5.66796875 2.64453125 C-3 0.625 -3 0.625 0 0 Z M-8 38.625 C-8.08870641 41.65456243 -8.11526582 44.6618671 -8.09765625 47.69140625 C-8.09664917 48.4963855 -8.09564209 49.30136475 -8.09460449 50.1307373 C-8.08935614 53.14967261 -8.075395 56.16858767 -8.0625 59.1875 C-8.041875 65.931875 -8.02125 72.67625 -8 79.625 C5.86 79.625 19.72 79.625 34 79.625 C34.0309375 69.5084375 34.0309375 69.5084375 34.0625 59.1875 C34.071604 57.05611572 34.08070801 54.92473145 34.09008789 52.72875977 C34.093007 51.04964257 34.09555557 49.37052467 34.09765625 47.69140625 C34.10277222 46.81125854 34.10788818 45.93111084 34.11315918 45.02429199 C34.11346896 42.89086121 34.06244067 40.75751686 34 38.625 C32.10376798 36.72876798 29.33629641 37.49602374 26.8137207 37.48605347 C25.94706787 37.4880777 25.08041504 37.49010193 24.1875 37.4921875 C23.30344482 37.49123077 22.41938965 37.49027405 21.50854492 37.48928833 C19.63557871 37.48860649 17.76261014 37.49046107 15.88964844 37.49462891 C13.01231612 37.49997711 10.13513992 37.49468407 7.2578125 37.48828125 C5.44270799 37.48894203 3.62760357 37.49022319 1.8125 37.4921875 C0.51252075 37.48915115 0.51252075 37.48915115 -0.8137207 37.48605347 C-4.72003219 37.11239586 -4.72003219 37.11239586 -8 38.625 Z " fill="#000000" transform="translate(243,295.375)"/>
<path d="M0 0 C1.24501282 -0.0112793 2.49002563 -0.02255859 3.77276611 -0.03417969 C5.1497826 -0.02640271 6.52679679 -0.01821005 7.90380859 -0.00964355 C9.35602521 -0.01506452 10.80823632 -0.02218704 12.26043701 -0.03088379 C16.20262884 -0.04912342 20.14440208 -0.04204721 24.08660126 -0.02936745 C28.21139151 -0.019243 32.33614584 -0.02863158 36.4609375 -0.03491211 C43.38792356 -0.04219015 50.31473905 -0.03259677 57.24169922 -0.0135498 C65.25116711 0.00821934 73.26022773 0.00116807 81.26968575 -0.02085543 C88.14539133 -0.03900503 95.02097429 -0.04156993 101.89669609 -0.03110075 C106.00372875 -0.02486336 110.11056996 -0.02403681 114.21759033 -0.0372467 C118.07877932 -0.04879831 121.93944304 -0.04079271 125.80057526 -0.01766968 C127.21794004 -0.01237881 128.635349 -0.01390291 130.05269623 -0.02272034 C131.9866122 -0.03364251 133.92062473 -0.01752003 135.85449219 0 C137.47827286 0.00226215 137.47827286 0.00226215 139.13485718 0.00457001 C142.60678 0.63042943 143.76485599 1.77688487 145.92724609 4.50793457 C146.86474609 6.94543457 146.86474609 6.94543457 146.92724609 9.50793457 C145.30568981 12.99428058 144.16271318 14.35095651 140.92724609 16.50793457 C138.29193306 16.76520348 138.29193306 16.76520348 135.05740356 16.77536011 C133.21935654 16.78815506 133.21935654 16.78815506 131.34417725 16.8012085 C129.98400866 16.80050945 128.62384018 16.79958638 127.26367188 16.79846191 C125.83293303 16.80444549 124.40219742 16.81125064 122.97146606 16.81881714 C119.08298503 16.83650231 115.19459198 16.84117358 111.30607462 16.84244871 C108.06054721 16.84434701 104.81504034 16.85170379 101.56952083 16.8587929 C93.91222207 16.87508418 86.25497035 16.8799612 78.59765625 16.87854004 C70.69788525 16.87733854 62.79838744 16.89844023 54.89868557 16.93002737 C48.11727364 16.95617706 41.33595099 16.96690788 34.55448902 16.96562922 C30.50383016 16.96511918 26.45341399 16.97082535 22.40280533 16.99198532 C18.59255592 17.01134579 14.78278123 17.0115076 10.97251511 16.99695206 C9.57490598 16.99486006 8.17726731 16.9995882 6.77970886 17.01167297 C4.87021781 17.0271136 2.96056505 17.0154237 1.05105591 17.00241089 C-0.01709288 17.00350042 -1.08524166 17.00458996 -2.18575859 17.00571251 C-5.78890741 16.38445484 -7.47492075 15.03051151 -10.07275391 12.50793457 C-10.70166016 10.50793457 -10.70166016 10.50793457 -10.63525391 8.50793457 C-10.63654297 7.84793457 -10.63783203 7.18793457 -10.63916016 6.50793457 C-9.08125442 1.00691568 -5.20633127 0.00725315 0 0 Z " fill="#000000" transform="translate(72.07275390625,151.4920654296875)"/>
<path d="M0 0 C1.22811401 -0.0112793 2.45622803 -0.02255859 3.72155762 -0.03417969 C5.07446526 -0.02640323 6.42737057 -0.0182106 7.78027344 -0.00964355 C9.21131095 -0.0150663 10.64234288 -0.02218982 12.07336426 -0.03088379 C15.95358496 -0.04910231 19.83337974 -0.04205594 23.71360779 -0.02936745 C27.77653135 -0.01923205 31.83941874 -0.02863462 35.90234375 -0.03491211 C42.72500142 -0.04218696 49.54748583 -0.03260515 56.37011719 -0.0135498 C64.25518809 0.00821873 72.13984528 0.00116724 80.02490616 -0.02085543 C86.79788883 -0.03901413 93.57074703 -0.04156548 100.34374619 -0.03110075 C104.38763967 -0.02486836 108.43133877 -0.02402306 112.47521973 -0.0372467 C116.27733197 -0.04881155 120.07891143 -0.04076853 123.88096619 -0.01766968 C125.27533585 -0.01238588 126.66975045 -0.01389083 128.06410217 -0.02272034 C129.96915066 -0.03367048 131.87429726 -0.01749598 133.77929688 0 C135.3776236 0.00226215 135.3776236 0.00226215 137.00823975 0.00457001 C140.61267478 0.63424287 142.28838638 1.98291308 144.88964844 4.50793457 C146.35261321 7.98247591 146.00239962 9.22874115 144.57714844 12.75793457 C142.88964844 15.50793457 142.88964844 15.50793457 140.88964844 16.50793457 C138.9476441 16.61030216 137.00208894 16.64744158 135.05740356 16.65510559 C133.81514008 16.66226089 132.57287659 16.6694162 131.29296875 16.67678833 C129.90869166 16.6796287 128.52441429 16.68234042 127.14013672 16.68493652 C125.68822059 16.69120014 124.23630607 16.69784685 122.78439331 16.70484924 C118.83396152 16.72226645 114.88354183 16.73281261 110.93308115 16.74105477 C108.46628896 16.74620261 105.99950055 16.75227839 103.53271103 16.7585659 C95.81840579 16.77761862 88.10411014 16.79185048 80.38978589 16.80017787 C71.47771413 16.8099565 62.56589034 16.83629181 53.65390599 16.87667876 C46.76978151 16.90680821 39.88572826 16.92164365 33.00153911 16.92495888 C28.88772583 16.9273127 24.77417743 16.93631595 20.66043472 16.96142006 C16.79112895 16.9846511 12.92226339 16.98895437 9.05290604 16.97865868 C7.63229409 16.97816201 6.21166084 16.98452095 4.79111481 16.99821472 C2.85277683 17.01585548 0.91424884 17.00646771 -1.0241394 16.99568176 C-2.65181653 16.99926429 -2.65181653 16.99926429 -4.31237602 17.0029192 C-7.78249238 16.38902739 -8.95393175 15.23701147 -11.11035156 12.50793457 C-11.67675781 10.50793457 -11.67675781 10.50793457 -11.67285156 8.50793457 C-11.69476563 7.84793457 -11.71667969 7.18793457 -11.73925781 6.50793457 C-10.02913552 1.06953324 -5.09080738 0.00720515 0 0 Z " fill="#000000" transform="translate(73.1103515625,72.4920654296875)"/>
<path d="M0 0 C1.86751923 -0.01475121 1.86751923 -0.01475121 3.77276611 -0.02980042 C5.14978301 -0.02042869 6.52679718 -0.01064939 7.90380859 -0.00050354 C9.35602339 -0.00428713 10.80823459 -0.00978751 12.26043701 -0.01687622 C16.2026451 -0.0308431 20.14441735 -0.0196527 24.08660126 -0.00316501 C28.21138353 0.0106811 32.33614038 0.00422592 36.4609375 0.0007019 C43.38792956 -0.00200057 50.31474838 0.01147853 57.24169922 0.03465271 C65.25111493 0.06126275 73.26024098 0.06300972 81.26968575 0.05126435 C88.97334628 0.04048643 96.67690199 0.04667372 104.3805542 0.06081963 C107.65959144 0.06657933 110.93855196 0.06649688 114.21759033 0.06175423 C118.0787112 0.05698309 121.93951475 0.06709152 125.80057526 0.08870888 C127.21793803 0.0942751 128.6353313 0.09474353 130.05269623 0.08975601 C131.98663529 0.08380401 133.92060517 0.09814046 135.85449219 0.11352539 C137.47827286 0.11717023 137.47827286 0.11717023 139.13485718 0.12088871 C142.2930984 0.55103366 143.65677798 1.29977124 145.92724609 3.50120544 C147.00906078 6.4375596 147.02707289 8.08193292 146.30224609 11.12620544 C144.56187591 14.1322994 143.03154562 14.97156048 139.92724609 16.50120544 C137.07707214 16.87872887 137.07707214 16.87872887 133.89282227 16.88215637 C132.68153656 16.89061584 131.47025085 16.89907532 130.22225952 16.90779114 C128.88824328 16.90195882 127.55422837 16.89581435 126.22021484 16.88938904 C124.80888462 16.89345618 123.39755759 16.89879886 121.98623657 16.90531921 C118.15979309 16.91898185 114.33359259 16.91369861 110.50714493 16.90418196 C106.50028078 16.89657988 102.49343725 16.90363249 98.48657227 16.90834045 C91.75810008 16.91379641 85.02972671 16.90661061 78.30126953 16.89231873 C70.52532245 16.87599248 62.74961137 16.8812811 54.97367001 16.89779794 C48.29412029 16.91141739 41.61464156 16.91333024 34.93508244 16.90548193 C30.94710993 16.90080793 26.95924831 16.90017304 22.97128296 16.9100914 C19.2217849 16.9187655 15.47259073 16.9127313 11.72312546 16.89540863 C10.34810261 16.89144612 8.97305414 16.89257384 7.59804153 16.89919662 C5.71926037 16.90741065 3.84042323 16.89527736 1.96166992 16.88215637 C0.38546623 16.88045976 0.38546623 16.88045976 -1.22257996 16.87872887 C-4.80628797 16.40404426 -7.49865646 15.07530289 -10.07275391 12.50120544 C-10.66643898 5.25824749 -10.66643898 5.25824749 -8.4256897 2.40093899 C-5.4215897 -0.02453711 -3.8310731 0.00074066 0 0 Z " fill="#000000" transform="translate(72.07275390625,125.49879455566406)"/>
<path d="M0 0 C1.19308273 -0.00426498 2.38616547 -0.00852997 3.61540222 -0.01292419 C5.57375504 -0.01224442 5.57375504 -0.01224442 7.57167053 -0.0115509 C8.96314586 -0.01454369 10.35462035 -0.0179465 11.74609375 -0.02172852 C15.5229361 -0.03055981 19.29975579 -0.03290624 23.07660747 -0.0335443 C25.43654729 -0.03425521 27.79648136 -0.03639029 30.15641975 -0.03904152 C38.39021801 -0.0482915 46.62400007 -0.05237677 54.85780334 -0.05158997 C62.53199967 -0.05098901 70.20612574 -0.06154524 77.88030428 -0.07733363 C84.47064543 -0.0904089 91.06096363 -0.09577388 97.65131766 -0.09513456 C101.58675295 -0.0948796 105.52212578 -0.09772971 109.45754814 -0.10831261 C113.15853424 -0.11799356 116.85939816 -0.11807283 120.56038857 -0.11079597 C122.56446041 -0.10925184 124.56853224 -0.1175966 126.57258606 -0.12623596 C128.3664399 -0.11994423 128.3664399 -0.11994423 130.1965332 -0.11352539 C131.23388579 -0.11407016 132.27123838 -0.11461493 133.3400259 -0.1151762 C137.45794664 0.24804216 140.22868631 1.20064066 143.16175842 4.13371277 C144.13201121 7.12532552 144.26281502 8.77159328 143.41175842 11.82121277 C142.16175842 14.13371277 142.16175842 14.13371277 139.16175842 16.13371277 C136.49241734 16.39098167 136.49241734 16.39098167 133.20925903 16.40113831 C131.96562088 16.40966827 130.72198273 16.41819824 129.44065857 16.42698669 C128.06001269 16.42628765 126.67936691 16.42536458 125.29872131 16.42424011 C123.84665582 16.43022355 122.39459351 16.43702867 120.9425354 16.44459534 C116.99627236 16.46228031 113.05009603 16.46695173 109.1037972 16.46822691 C105.81095442 16.47012491 102.5181319 16.47748121 99.22529691 16.4845711 C91.45776911 16.50086175 83.69028767 16.50573939 75.92274475 16.50431824 C67.90593993 16.50311625 59.8894041 16.52422774 51.87266737 16.55580556 C44.99275826 16.58194126 38.11293715 16.59268669 31.23297876 16.59140742 C27.12254952 16.59089703 23.01235931 16.59662234 18.90197945 16.61776352 C15.03674322 16.63710087 11.17197519 16.63730172 7.30672264 16.62273026 C5.88773034 16.62063549 4.46870907 16.62538277 3.04976654 16.63745117 C1.11365031 16.65285244 -0.8226249 16.64121976 -2.75875854 16.62818909 C-3.84257781 16.62927862 -4.92639708 16.63036816 -6.04305935 16.63149071 C-9.50979603 16.01411949 -10.68726444 14.86476849 -12.83824158 12.13371277 C-13.54706461 9.22586396 -13.17795947 7.19117377 -12.83824158 4.13371277 C-11.42524053 1.94356114 -10.54468344 1.35969886 -8.09375668 0.57566357 C-5.35418478 0.03886557 -2.79305607 0.00451383 0 0 Z " fill="#000000" transform="translate(74.83824157714844,98.86628723144531)"/>
<path d="M0 0 C0.73397003 -0.00861557 1.46794006 -0.01723114 2.22415161 -0.02610779 C4.64068261 -0.04873702 7.05605115 -0.04203567 9.47265625 -0.03295898 C11.1574742 -0.03819566 12.84228921 -0.0444723 14.52709961 -0.05174255 C18.05433978 -0.06214085 21.58117638 -0.05759326 25.10839844 -0.04296875 C29.62475393 -0.02577424 34.13983799 -0.04928634 38.65605164 -0.08445835 C42.13399661 -0.1064353 45.61163741 -0.10499037 49.08963013 -0.09669304 C50.75458166 -0.09587381 52.41955559 -0.10273181 54.08444214 -0.11746407 C56.41385731 -0.13491856 58.74098855 -0.12036429 61.0703125 -0.09765625 C62.09754929 -0.11519455 62.09754929 -0.11519455 63.14553833 -0.13308716 C66.9319922 -0.05811939 68.47184877 0.48258607 71.46264648 2.88539124 C73.53515625 5.53344727 73.53515625 5.53344727 74.16015625 8.53344727 C73.30986223 12.61485855 71.76881125 13.94148857 68.53515625 16.53344727 C65.80039695 17.02462945 63.68874031 17.21036351 60.96264648 17.16455078 C60.21731659 17.17170609 59.47198669 17.17886139 58.70407104 17.18623352 C56.24999979 17.20308903 53.79776341 17.18374054 51.34375 17.16235352 C49.63411813 17.16318243 47.92448635 17.16564265 46.21485901 17.16966248 C42.63624004 17.17251818 39.05824775 17.15784051 35.47973633 17.13037109 C30.89389629 17.09626238 26.30917474 17.10231696 21.72328091 17.12103367 C18.19475487 17.13160348 14.66648898 17.12266655 11.13798714 17.10764885 C9.44711136 17.10246814 7.75620841 17.1029475 6.06533623 17.1091938 C3.7023871 17.11464704 1.34103821 17.09427107 -1.02172852 17.06689453 C-2.06838432 17.07668335 -2.06838432 17.07668335 -3.13618469 17.08666992 C-6.51423882 17.02014813 -8.20346463 16.73873228 -10.89463806 14.62510681 C-12.58921566 12.36777235 -13.03279036 11.32211355 -13.02734375 8.53344727 C-13.04925781 7.87344727 -13.07117187 7.21344727 -13.09375 6.53344727 C-11.19879783 0.50726397 -5.47128139 -0.05213733 0 0 Z " fill="#000000" transform="translate(74.46484375,46.466552734375)"/>
<path d="M0 0 C1.90625 0.40234375 1.90625 0.40234375 4.40625 1.77734375 C6.72345603 5.83245431 6.2198204 9.83815239 5.90625 14.40234375 C6.81117188 14.36753906 6.81117188 14.36753906 7.734375 14.33203125 C8.93320312 14.30496094 8.93320312 14.30496094 10.15625 14.27734375 C10.94515625 14.25414063 11.7340625 14.2309375 12.546875 14.20703125 C15.14812016 14.42236611 16.69459026 15.04243918 18.90625 16.40234375 C21.00304403 19.09822178 20.90135821 20.49528775 20.71875 23.96484375 C19.66589729 28.41922059 19.66589729 28.41922059 16.90625 30.40234375 C14.20703125 30.6953125 14.20703125 30.6953125 11.21875 30.58984375 C9.72794922 30.54923828 9.72794922 30.54923828 8.20703125 30.5078125 C7.44777344 30.47300781 6.68851562 30.43820313 5.90625 30.40234375 C5.96425781 31.15 6.02226562 31.89765625 6.08203125 32.66796875 C6.45062611 40.71386808 6.45062611 40.71386808 3.78125 44.08984375 C0.45201344 45.60971262 -1.47639592 45.94109861 -5.09375 45.40234375 C-8.2296657 43.6224997 -8.93477736 42.87926168 -10.09375 39.40234375 C-10.16115865 37.84115947 -10.17889456 36.27731855 -10.15625 34.71484375 C-10.14722656 33.90660156 -10.13820313 33.09835938 -10.12890625 32.265625 C-10.11730469 31.65074219 -10.10570312 31.03585938 -10.09375 30.40234375 C-10.76921875 30.44875 -11.4446875 30.49515625 -12.140625 30.54296875 C-19.45449839 30.83890582 -19.45449839 30.83890582 -22.65625 28.65234375 C-24.10541661 26.38408297 -24.93133166 25.08224631 -25.09375 22.40234375 C-24.31194216 19.19693159 -23.48738039 17.73808732 -20.96875 15.58984375 C-17.11882023 13.99965537 -14.24061216 14.19148635 -10.09375 14.40234375 C-10.14015625 13.81066406 -10.1865625 13.21898438 -10.234375 12.609375 C-10.41749078 8.60044728 -10.38533854 5.99767036 -8.59375 2.33984375 C-5.55334607 -0.0164693 -3.7712822 -0.28847494 0 0 Z " fill="#000000" transform="translate(336.09375,77.59765625)"/>
</svg>
