<?xml version="1.0" standalone="no"?>
<!DOCTYPE svg PUBLIC "-//W3C//DTD SVG 20010904//EN"
 "http://www.w3.org/TR/2001/REC-SVG-20010904/DTD/svg10.dtd">
<svg version="1.0" xmlns="http://www.w3.org/2000/svg"
 width="512.000000pt" height="512.000000pt" viewBox="0 0 512.000000 512.000000"
 preserveAspectRatio="xMidYMid meet">

<g transform="translate(0.000000,512.000000) scale(0.100000,-0.100000)"
fill="#000000" stroke="none">
<path d="M54 4430 c-12 -5 -29 -19 -38 -32 -15 -20 -16 -187 -16 -1840 l0
-1817 24 -28 24 -28 2512 0 2512 0 24 28 24 28 0 1819 0 1819 -24 28 -24 28
-2499 2 c-1394 1 -2507 -2 -2519 -7z m796 -330 l0 -170 -340 0 -340 0 0 170 0
170 340 0 340 0 0 -170z m1028 -2 l2 -168 -430 0 -430 0 0 163 c0 90 3 167 7
170 3 4 196 6 427 5 l421 -3 3 -167z m1022 2 l0 -170 -425 0 -425 0 0 170 0
170 425 0 425 0 0 -170z m1028 -2 l2 -168 -430 0 -430 0 0 170 0 170 428 -2
427 -3 3 -167z m1022 2 l0 -170 -425 0 -425 0 0 170 0 170 425 0 425 0 0 -170z
m-4100 -520 l0 -170 -340 0 -340 0 0 170 0 170 340 0 340 0 0 -170z m1028
-1277 l-3 -1448 -425 0 -425 0 -3 1448 -2 1447 430 0 430 0 -2 -1447z m1022
-3 l0 -1450 -425 0 -425 0 0 1450 0 1450 425 0 425 0 0 -1450z m1028 3 l-3
-1448 -427 -3 -428 -2 0 1450 0 1450 430 0 430 0 -2 -1447z m1022 -3 l0 -1450
-425 0 -425 0 0 1450 0 1450 425 0 425 0 0 -1450z m-4100 770 l0 -170 -340 0
-340 0 0 170 0 170 340 0 340 0 0 -170z m0 -510 l0 -170 -340 0 -340 0 0 170
0 170 340 0 340 0 0 -170z m0 -510 l0 -170 -340 0 -340 0 0 170 0 170 340 0
340 0 0 -170z m0 -510 l0 -170 -340 0 -340 0 0 170 0 170 340 0 340 0 0 -170z
m0 -520 l0 -170 -340 0 -340 0 0 170 0 170 340 0 340 0 0 -170z"/>
<path d="M1245 3658 c-52 -28 -62 -92 -20 -133 24 -25 25 -25 223 -25 183 0
201 2 224 20 14 11 28 31 30 44 7 36 -17 85 -47 96 -36 14 -384 12 -410 -2z"/>
<path d="M1265 2643 c-65 -17 -87 -98 -39 -144 25 -24 28 -24 218 -24 212 0
237 6 255 56 6 19 7 39 0 57 -18 52 -38 57 -234 59 -99 1 -189 -1 -200 -4z"/>
<path d="M1225 1595 c-15 -15 -25 -36 -25 -54 0 -82 25 -91 249 -91 99 0 191
4 206 10 30 11 54 60 47 96 -2 13 -16 33 -30 44 -23 18 -41 20 -224 20 -198 0
-199 0 -223 -25z"/>
<path d="M1245 1098 c-52 -28 -62 -92 -20 -133 24 -25 25 -25 223 -25 183 0
201 2 224 20 14 11 28 31 30 44 7 36 -17 85 -47 96 -36 14 -384 12 -410 -2z"/>
<path d="M2274 3150 c-55 -22 -70 -95 -29 -135 24 -25 25 -25 230 -25 l206 0
24 26 c32 34 32 75 1 111 l-24 28 -194 2 c-106 1 -203 -2 -214 -7z"/>
<path d="M2270 2632 c-41 -20 -58 -59 -44 -99 18 -53 59 -63 249 -63 142 0
176 3 205 18 41 20 58 59 44 100 -18 52 -59 62 -249 62 -142 0 -176 -3 -205
-18z"/>
<path d="M2245 2105 c-32 -31 -32 -75 -1 -112 l24 -28 207 0 207 0 24 28 c31
36 31 77 -1 111 l-24 26 -206 0 c-205 0 -206 0 -230 -25z"/>
<path d="M3294 3146 c-20 -9 -35 -25 -42 -45 -13 -36 -8 -56 21 -88 20 -22 26
-23 222 -23 190 0 204 1 229 21 20 16 26 29 26 57 -1 44 -16 67 -54 82 -42 15
-364 12 -402 -4z"/>
<path d="M3274 1596 c-36 -30 -39 -86 -6 -119 21 -21 32 -22 209 -25 103 -2
197 -1 210 3 63 16 85 94 38 140 -24 25 -25 25 -224 25 -196 0 -200 0 -227
-24z"/>
<path d="M4335 2643 c-65 -16 -88 -98 -39 -144 25 -23 31 -24 198 -27 209 -4
250 4 273 53 16 32 16 38 0 69 -12 26 -26 37 -54 45 -37 11 -338 13 -378 4z"/>
<path d="M4295 2105 c-34 -33 -34 -83 1 -116 25 -23 31 -24 209 -27 146 -3
190 0 219 12 60 25 71 91 24 136 -20 19 -35 20 -225 20 -203 0 -204 0 -228
-25z"/>
<path d="M4315 1098 c-51 -30 -61 -93 -20 -133 24 -25 25 -25 224 -25 196 0
200 0 227 24 36 30 39 86 6 119 -22 21 -31 22 -220 25 -137 1 -203 -2 -217
-10z"/>
</g>
</svg>
