<?xml version="1.0" standalone="no"?>
<!DOCTYPE svg PUBLIC "-//W3C//DTD SVG 20010904//EN"
 "http://www.w3.org/TR/2001/REC-SVG-20010904/DTD/svg10.dtd">
<svg version="1.0" xmlns="http://www.w3.org/2000/svg"
 width="512.000000pt" height="512.000000pt" viewBox="0 0 512.000000 512.000000"
 preserveAspectRatio="xMidYMid meet">

<g transform="translate(0.000000,512.000000) scale(0.100000,-0.100000)"
fill="#000000" stroke="none">
<path d="M3689 5022 c-12 -11 -34 -49 -48 -86 l-26 -68 -85 -34 c-47 -19 -91
-37 -97 -40 -7 -4 -47 8 -89 26 -66 27 -80 30 -104 20 -40 -16 -227 -210 -235
-243 -5 -20 1 -48 25 -101 l32 -74 -23 -43 c-12 -24 -29 -66 -39 -93 -16 -48
-19 -51 -85 -78 -110 -45 -105 -35 -105 -229 l0 -167 31 -26 c17 -14 37 -26
45 -26 8 0 14 -3 14 -8 0 -4 -88 -95 -195 -202 l-195 -195 -151 151 -151 151
16 53 c20 67 20 103 0 169 -45 153 -233 236 -379 167 -95 -44 -165 -151 -165
-251 0 -100 70 -207 165 -251 60 -28 156 -32 212 -9 l37 16 191 -189 c104
-104 198 -192 208 -195 9 -4 30 -2 45 4 15 6 129 111 253 235 l225 225 23 -49
23 -49 -31 -71 c-17 -39 -31 -81 -31 -93 0 -34 227 -259 262 -259 14 0 55 14
92 30 l67 31 49 -23 c28 -13 50 -25 50 -28 0 -3 -103 -109 -230 -235 -212
-212 -230 -233 -230 -265 0 -32 16 -51 190 -225 l191 -191 -16 -37 c-8 -20
-15 -65 -15 -99 0 -80 31 -148 92 -204 173 -159 457 -38 460 195 1 89 -19 138
-82 203 -81 83 -168 105 -280 72 l-53 -16 -151 151 -151 151 195 195 c107 107
198 195 202 195 5 0 8 -6 8 -14 0 -8 12 -28 26 -45 l26 -31 167 0 c195 0 188
-3 231 107 21 55 30 68 55 76 17 5 59 22 95 39 l66 29 68 -30 c37 -17 79 -31
93 -31 19 0 53 27 134 106 139 137 142 144 99 239 l-32 74 35 83 c19 46 37 90
40 98 2 8 35 26 72 40 103 38 105 43 105 230 0 186 0 185 -103 227 l-69 28
-39 97 -40 97 31 72 c19 42 29 80 26 93 -3 11 -57 72 -120 135 -131 130 -133
131 -233 87 l-62 -28 -98 40 -98 40 -28 69 c-42 103 -41 103 -227 103 -139 0
-161 -2 -181 -18z m285 -210 c29 -75 34 -79 136 -112 36 -12 89 -35 117 -51
65 -36 94 -36 169 -3 l57 25 55 -54 55 -55 -27 -57 c-34 -75 -33 -98 8 -175
19 -36 42 -92 52 -125 24 -84 31 -92 106 -122 l68 -26 0 -79 c0 -79 0 -79 -30
-89 -16 -6 -48 -20 -72 -32 -40 -21 -45 -28 -74 -107 -17 -47 -42 -108 -57
-137 -33 -65 -34 -86 -1 -159 l25 -57 -55 -55 -54 -55 -62 26 c-34 15 -70 27
-80 27 -10 0 -53 -18 -96 -39 -44 -22 -104 -47 -135 -56 -67 -19 -81 -32 -109
-107 l-21 -58 -80 0 c-80 0 -80 0 -90 30 -6 16 -20 48 -32 72 -21 40 -27 44
-112 73 -49 17 -111 43 -136 58 -57 34 -72 34 -149 0 l-62 -26 -55 56 -56 56
26 59 c34 74 34 94 0 151 -15 25 -41 87 -57 136 -29 85 -33 91 -74 112 -24 12
-56 26 -72 32 -30 10 -30 10 -30 89 l0 80 59 22 c74 27 86 40 112 120 11 35
36 95 55 132 19 37 34 76 34 87 0 11 -12 47 -27 81 l-26 62 54 54 55 55 57
-26 c75 -33 94 -32 177 10 37 19 96 42 129 51 71 20 90 38 121 117 l22 57 78
0 77 0 27 -68z m-1946 -918 c95 -67 49 -214 -68 -214 -92 0 -147 89 -105 170
22 42 53 60 105 60 25 0 56 -7 68 -16z m1707 -1718 c18 -8 41 -26 50 -39 19
-30 22 -95 6 -126 -16 -30 -70 -61 -104 -61 -120 0 -162 170 -55 223 41 20 59
21 103 3z"/>
<path d="M3736 4504 c-179 -43 -334 -195 -390 -383 -20 -68 -21 -207 -1 -280
30 -116 102 -222 198 -294 103 -77 193 -108 323 -108 157 0 271 46 380 155
110 110 164 236 164 381 0 151 -52 277 -160 386 -132 134 -327 188 -514 143z
m297 -182 c77 -38 148 -111 185 -190 24 -50 27 -69 27 -157 0 -90 -3 -106 -29
-160 -142 -289 -558 -288 -694 3 -24 50 -27 69 -27 162 0 94 3 111 27 161 33
65 105 142 162 171 74 38 118 48 203 45 67 -3 92 -9 146 -35z"/>
<path d="M2192 4637 c-27 -29 -29 -87 -4 -110 10 -9 33 -23 52 -31 19 -8 32
-15 28 -16 -30 -1 -1833 -492 -1845 -501 -40 -34 -41 -32 172 -827 113 -422
210 -777 217 -789 26 -52 106 -47 137 8 13 24 2 72 -177 740 -105 393 -192
722 -194 733 -3 16 87 42 827 241 457 122 847 227 868 233 20 6 37 9 37 8 0
-1 -11 -17 -25 -36 -32 -43 -32 -84 0 -115 29 -30 74 -33 103 -7 11 9 62 73
113 142 101 135 113 171 74 209 -26 25 -303 141 -336 141 -14 0 -35 -10 -47
-23z"/>
<path d="M4210 2787 c-13 -7 -31 -24 -39 -38 -13 -24 -2 -73 177 -740 105
-393 192 -722 194 -733 3 -16 -87 -42 -827 -241 -456 -122 -847 -227 -867
-233 -21 -6 -38 -9 -38 -8 0 1 11 17 25 36 32 43 32 84 0 115 -29 30 -74 33
-103 8 -11 -10 -62 -74 -113 -143 -100 -135 -113 -171 -73 -209 25 -25 302
-141 335 -141 36 0 69 39 69 82 0 39 -17 59 -70 82 -19 8 -32 15 -28 16 30 1
1833 492 1845 501 40 34 41 32 -172 827 -113 422 -210 777 -216 788 -10 19
-48 44 -67 44 -4 0 -18 -6 -32 -13z"/>
<path d="M1723 2547 c-89 -89 -113 -119 -113 -140 0 -39 41 -77 82 -77 29 0
47 14 141 108 97 97 107 111 107 144 0 28 -6 42 -26 57 -50 39 -69 30 -191
-92z"/>
<path d="M2400 2631 c-163 -54 -248 -211 -195 -362 l16 -43 -138 -138 -137
-137 -33 30 c-42 36 -64 36 -145 0 l-65 -30 -100 41 -100 41 -22 62 c-37 104
-39 105 -233 105 -192 0 -185 3 -228 -107 -20 -54 -30 -68 -52 -74 -15 -4 -58
-21 -95 -39 l-69 -31 -68 30 c-37 17 -79 31 -93 31 -19 0 -53 -27 -134 -106
-139 -137 -142 -144 -99 -239 l32 -74 -35 -83 c-19 -46 -37 -90 -40 -98 -2 -9
-35 -26 -71 -39 -103 -36 -106 -43 -106 -231 0 -186 0 -185 103 -227 l69 -28
39 -97 40 -97 -31 -72 c-19 -42 -29 -80 -26 -93 3 -11 57 -72 120 -135 130
-130 133 -131 233 -87 l61 28 98 -39 98 -40 28 -69 c43 -104 42 -104 228 -104
187 0 190 1 229 104 l26 68 85 34 c47 19 91 37 97 40 7 4 46 -8 88 -25 69 -29
77 -30 107 -17 44 18 225 204 233 239 5 20 -1 48 -25 101 l-32 74 23 43 c12
24 29 66 39 93 16 48 19 51 86 78 105 43 104 42 104 232 0 189 1 187 -109 229
-54 19 -66 29 -74 53 -5 16 -23 59 -39 95 l-30 67 31 70 c38 87 38 103 2 145
l-30 33 137 137 137 137 50 -16 c129 -40 271 20 329 139 36 72 42 131 22 200
-34 116 -129 194 -247 202 -35 2 -75 1 -89 -4z m121 -166 c34 -18 69 -70 69
-103 0 -54 -48 -110 -102 -119 -105 -17 -179 107 -111 187 42 51 90 62 144 35z
m-1180 -455 c6 -16 20 -48 32 -72 21 -40 27 -44 114 -74 50 -17 112 -43 136
-58 57 -32 71 -32 147 1 l62 26 55 -56 56 -56 -26 -59 c-34 -74 -34 -94 0
-151 15 -25 41 -86 57 -136 29 -85 33 -91 74 -112 24 -12 56 -26 72 -32 30
-10 30 -10 30 -89 l0 -80 -59 -22 c-74 -27 -86 -40 -112 -120 -11 -35 -36 -95
-55 -132 -19 -37 -34 -76 -34 -87 0 -11 12 -47 27 -81 l26 -62 -54 -54 -55
-55 -57 26 c-75 33 -94 32 -177 -10 -37 -19 -96 -42 -129 -51 -71 -20 -90 -38
-121 -116 l-22 -58 -78 0 -77 0 -27 68 c-29 76 -32 78 -145 117 -41 13 -93 36
-117 50 -54 32 -87 31 -160 -1 l-57 -25 -55 54 -55 55 27 57 c34 75 33 98 -8
175 -19 36 -42 92 -52 125 -24 84 -31 92 -106 122 l-68 26 0 80 c0 72 2 79 21
84 12 3 44 18 73 32 50 25 52 28 82 111 17 47 42 108 57 137 33 65 34 86 1
159 l-25 57 55 56 55 55 63 -27 c35 -15 70 -27 79 -27 9 0 52 18 95 39 44 21
104 46 135 55 66 19 81 33 109 109 l21 57 80 0 c80 0 80 0 90 -30z"/>
<path d="M1190 1679 c-269 -28 -480 -262 -480 -534 1 -303 242 -546 543 -545
242 1 452 164 522 404 23 80 17 238 -13 319 -41 113 -119 210 -224 278 -102
66 -215 91 -348 78z m224 -192 c71 -33 150 -112 184 -185 24 -50 27 -69 27
-162 0 -94 -3 -111 -27 -161 -38 -76 -109 -146 -188 -183 -58 -28 -75 -31
-160 -31 -82 0 -103 4 -153 27 -80 38 -158 115 -193 191 -26 55 -29 73 -29
162 0 90 3 106 29 160 93 189 318 270 510 182z"/>
<path d="M2543 1727 c-92 -93 -103 -108 -103 -139 0 -51 28 -82 75 -82 34 0
46 9 146 110 118 120 127 139 88 188 -16 20 -29 26 -61 26 -39 0 -47 -6 -145
-103z"/>
</g>
</svg>
