<?xml version="1.0" standalone="no"?>
<!DOCTYPE svg PUBLIC "-//W3C//DTD SVG 20010904//EN"
 "http://www.w3.org/TR/2001/REC-SVG-20010904/DTD/svg10.dtd">
<svg version="1.0" xmlns="http://www.w3.org/2000/svg"
 width="512.000000pt" height="512.000000pt" viewBox="0 0 512.000000 512.000000"
 preserveAspectRatio="xMidYMid meet">

<g transform="translate(0.000000,512.000000) scale(0.100000,-0.100000)"
fill="#000000" stroke="none">
<path d="M513 5110 c-12 -5 -26 -18 -32 -29 -8 -14 -11 -771 -11 -2524 0
-2451 0 -2505 19 -2528 l19 -24 2029 -3 c1115 -1 2038 0 2050 3 12 3 32 15 43
27 20 22 20 24 20 2529 0 2453 0 2507 -19 2530 l-19 24 -2039 2 c-1162 1
-2047 -2 -2060 -7z m3987 -2550 l0 -2410 -1945 0 -1945 0 0 2410 0 2410 1945
0 1945 0 0 -2410z"/>
<path d="M1295 4610 c-48 -19 -50 -28 -53 -294 -2 -138 -1 -266 3 -284 13 -68
80 -95 123 -49 20 21 22 34 22 125 l0 102 85 0 c78 0 88 2 110 25 30 29 32 64
5 98 -19 24 -28 26 -108 29 l-87 3 0 50 0 50 92 5 c77 4 95 8 107 25 30 39 18
88 -25 110 -31 17 -238 20 -274 5z"/>
<path d="M1938 4610 c-61 -11 -141 -55 -180 -99 -17 -19 -43 -60 -57 -91 -35
-74 -37 -191 -4 -262 30 -66 96 -133 162 -165 48 -24 68 -28 141 -28 73 0 93
4 142 28 72 35 141 111 165 180 10 31 18 80 17 123 0 197 -186 348 -386 314z
m105 -151 c47 -13 106 -63 123 -106 58 -137 -80 -290 -220 -243 -79 26 -127
89 -128 170 0 86 51 155 132 178 47 13 49 14 93 1z"/>
<path d="M2971 4594 c-20 -26 -21 -39 -21 -311 l0 -284 25 -24 c29 -30 64 -32
96 -6 23 18 24 27 29 161 l5 141 54 -93 c80 -136 97 -158 129 -158 15 0 32 4
39 8 6 4 44 61 82 127 l71 120 0 -138 c0 -133 1 -139 25 -162 28 -29 61 -32
93 -9 22 15 22 16 22 315 0 286 -1 300 -20 319 -25 25 -74 26 -97 2 -10 -10
-61 -93 -113 -185 -52 -91 -98 -166 -101 -167 -4 0 -51 75 -104 168 -54 92
-104 175 -113 185 -24 27 -76 22 -101 -9z"/>
<path d="M2443 4578 c-23 -24 -23 -28 -23 -290 0 -243 2 -268 18 -289 45 -54
132 -9 132 69 l0 36 58 -56 c70 -68 93 -81 124 -69 34 13 51 37 51 72 0 24
-14 45 -68 99 l-68 68 29 15 c64 33 104 102 104 177 0 66 -29 123 -82 157 -38
25 -52 28 -147 31 -101 3 -107 2 -128 -20z m188 -138 c21 -12 25 -50 7 -68 -7
-7 -27 -12 -45 -12 -32 0 -33 2 -33 38 0 21 3 42 7 45 10 10 42 8 64 -3z"/>
<path d="M1085 3585 c-42 -41 -25 -99 34 -116 24 -7 462 -9 1342 -7 1269 3
1308 4 1328 22 27 25 28 79 1 106 -20 20 -33 20 -1350 20 l-1331 0 -24 -25z"/>
<path d="M1114 3030 c-26 -10 -54 -48 -54 -71 0 -9 9 -28 21 -43 l20 -26 379
0 379 0 20 26 c27 35 26 57 -3 91 l-24 28 -359 2 c-197 1 -368 -2 -379 -7z"/>
<path d="M2064 3026 c-48 -21 -60 -80 -24 -116 20 -20 33 -20 878 -20 819 0
860 1 875 18 24 27 22 85 -4 108 -20 18 -51 19 -858 21 -687 2 -842 0 -867
-11z"/>
<path d="M1104 2448 c-22 -10 -44 -47 -44 -72 0 -7 9 -25 21 -40 l20 -26 579
0 c536 0 579 1 598 18 12 9 24 29 28 44 5 22 0 33 -24 58 l-30 30 -564 -1
c-366 0 -570 -4 -584 -11z"/>
<path d="M2473 2450 c-46 -19 -57 -83 -20 -118 l23 -22 645 0 c723 0 689 -3
689 69 0 26 -7 44 -21 57 -20 18 -47 19 -658 21 -354 1 -646 -2 -658 -7z"/>
<path d="M1081 1854 c-24 -30 -26 -43 -10 -78 21 -44 43 -47 398 -44 l333 3
24 28 c29 34 30 56 3 91 l-20 26 -354 0 -354 0 -20 -26z"/>
<path d="M1990 1860 c-25 -25 -26 -71 -1 -101 l19 -24 880 0 c851 0 881 1 901
19 27 25 29 86 3 109 -17 16 -94 17 -900 17 -869 0 -882 0 -902 -20z"/>
<path d="M1081 1274 c-27 -35 -26 -57 3 -91 l24 -28 989 -3 c543 -1 1003 0
1021 3 66 12 95 82 52 125 -20 20 -33 20 -1044 20 l-1025 0 -20 -26z"/>
<path d="M3457 1209 c-25 -14 -83 -136 -162 -339 -38 -96 -71 -178 -74 -182
-3 -3 -77 -11 -163 -17 -86 -5 -166 -15 -177 -21 -42 -22 -40 -97 3 -119 33
-18 400 3 432 24 13 8 39 61 70 141 l49 127 6 -122 c8 -139 20 -164 80 -164
28 0 43 11 100 71 l67 72 40 -73 c55 -99 72 -113 120 -99 20 6 61 13 89 17 72
9 105 36 101 83 -2 24 -11 41 -29 55 -24 17 -34 18 -84 10 l-56 -10 -49 98
c-74 147 -108 161 -188 78 l-49 -51 -8 187 c-7 171 -9 188 -29 210 -25 27 -64
38 -89 24z"/>
<path d="M1109 719 c-25 -9 -49 -45 -49 -73 0 -7 9 -25 21 -40 l20 -26 654 0
654 0 21 22 c37 40 22 98 -31 117 -41 14 -1252 14 -1290 0z"/>
</g>
</svg>
