<?xml version="1.0" standalone="no"?>
<!DOCTYPE svg PUBLIC "-//W3C//DTD SVG 20010904//EN"
 "http://www.w3.org/TR/2001/REC-SVG-20010904/DTD/svg10.dtd">
<svg version="1.0" xmlns="http://www.w3.org/2000/svg"
 width="512.000000pt" height="512.000000pt" viewBox="0 0 512.000000 512.000000"
 preserveAspectRatio="xMidYMid meet">

<g transform="translate(0.000000,512.000000) scale(0.100000,-0.100000)"
fill="#000000" stroke="none">
<path d="M3016 4678 c-22 -13 -48 -37 -57 -53 -25 -44 -1089 -3999 -1089
-4048 0 -82 70 -149 155 -149 78 0 131 43 159 130 52 161 1066 3956 1066 3988
0 113 -135 189 -234 132z"/>
<path d="M1485 4046 c-48 -21 -1460 -1388 -1474 -1427 -15 -44 -14 -82 5 -122
18 -38 1407 -1382 1457 -1409 17 -10 52 -18 77 -18 103 0 174 95 148 198 -10
41 -57 89 -660 670 l-648 626 60 55 c279 259 1232 1190 1242 1215 33 79 0 169
-76 205 -48 24 -88 26 -131 7z"/>
<path d="M3504 4041 c-76 -35 -112 -140 -73 -214 8 -15 237 -242 509 -504 272
-262 561 -540 642 -618 l147 -143 -640 -616 c-351 -340 -647 -628 -655 -642
-23 -35 -22 -113 2 -155 43 -74 139 -102 211 -61 17 9 349 323 737 696 493
476 710 691 722 717 19 44 15 106 -10 144 -31 47 -1431 1388 -1463 1401 -44
19 -80 17 -129 -5z"/>
</g>
</svg>
