<?xml version="1.0" standalone="no"?>
<!DOCTYPE svg PUBLIC "-//W3C//DTD SVG 20010904//EN"
 "http://www.w3.org/TR/2001/REC-SVG-20010904/DTD/svg10.dtd">
<svg version="1.0" xmlns="http://www.w3.org/2000/svg"
 width="512.000000pt" height="512.000000pt" viewBox="0 0 512.000000 512.000000"
 preserveAspectRatio="xMidYMid meet">

<g transform="translate(0.000000,512.000000) scale(0.100000,-0.100000)"
fill="#000000" stroke="none">
<path d="M275 4910 c-11 -4 -31 -20 -45 -35 l-25 -27 0 -289 0 -289 33 -32
c28 -28 39 -33 82 -33 43 0 54 5 82 33 l33 32 3 205 3 205 2120 0 2119 0 0
-460 0 -460 -509 0 -508 0 -34 -23 c-19 -13 -39 -38 -46 -57 -9 -26 -12 -196
-12 -627 l-1 -593 -255 0 -255 0 0 914 0 914 -26 31 c-14 17 -42 35 -62 41
-50 14 -1264 14 -1314 0 -54 -15 -88 -61 -88 -117 0 -38 5 -50 34 -79 l34 -34
591 0 591 0 0 -900 c0 -965 -1 -940 50 -985 21 -19 38 -20 436 -23 358 -2 418
-1 444 13 62 32 60 14 60 680 l0 605 435 0 435 0 0 -1540 0 -1540 -275 0 -275
0 0 746 c0 818 2 791 -59 827 -26 15 -70 17 -428 17 -437 0 -426 1 -458 -60
-12 -24 -15 -87 -15 -370 l0 -340 -392 2 -393 3 -5 456 c-5 439 -6 458 -25
479 -43 48 -60 50 -448 50 -201 0 -379 -3 -396 -6 -41 -8 -86 -54 -95 -94 -7
-40 13 -90 49 -118 27 -22 34 -22 351 -22 l323 0 3 -453 c3 -429 4 -453 23
-481 38 -56 38 -56 612 -56 483 0 531 2 563 18 68 33 70 46 70 420 l0 332 240
0 240 0 0 -750 c0 -830 -3 -792 64 -824 32 -15 81 -16 465 -14 l431 3 32 33
33 32 0 2290 0 2290 -33 32 -32 33 -2278 2 c-1252 1 -2286 -2 -2297 -7z"/>
<path d="M920 4357 c-20 -7 -44 -26 -57 -46 -23 -33 -23 -39 -23 -312 l0 -279
-265 0 c-296 0 -319 -4 -355 -62 -20 -33 -20 -42 -18 -1710 l3 -1678 33 -32
32 -33 1536 0 1536 0 29 32 c51 58 51 108 0 166 l-29 32 -846 3 -846 2 0 529
c0 527 0 528 -22 556 -40 51 -64 55 -358 55 l-270 0 0 735 c0 615 -2 740 -14
763 -39 76 -162 74 -204 -3 -15 -27 -17 -104 -20 -795 -2 -421 0 -790 3 -819
6 -44 14 -62 40 -88 l33 -33 286 0 286 0 0 -450 0 -450 -485 0 -485 0 0 1520
0 1520 639 0 638 0 34 23 c70 47 70 147 0 194 -34 23 -37 23 -352 23 l-319 0
0 278 c0 257 -2 279 -20 309 -30 50 -82 69 -140 50z"/>
<path d="M2295 3796 c-17 -7 -40 -26 -50 -42 -19 -27 -20 -52 -23 -431 l-3
-403 -287 0 c-165 0 -303 -4 -324 -10 -54 -15 -88 -61 -88 -117 0 -38 5 -50
34 -79 l34 -34 402 0 402 0 34 34 34 34 0 486 c0 539 1 529 -64 560 -41 19
-61 20 -101 2z"/>
</g>
</svg>
