<?xml version="1.0" encoding="iso-8859-1"?>
<!-- Uploaded to: SVG Repo, www.svgrepo.com, Generator: SVG Repo Mixer Tools -->
<svg fill="#000000" height="800px" width="800px" version="1.1" id="Layer_1" xmlns="http://www.w3.org/2000/svg" xmlns:xlink="http://www.w3.org/1999/xlink" 
	 viewBox="0 0 512 512" xml:space="preserve">
<g>
	<g>
		<path d="M486.4,51.2h-51.2V38.4c0-21.205-17.195-38.4-38.4-38.4c-21.205,0-38.4,17.195-38.4,38.4v12.8H153.6V38.4
			c0-21.205-17.195-38.4-38.4-38.4S76.8,17.195,76.8,38.4v12.8H25.6C11.46,51.2,0,62.66,0,76.8v409.6C0,500.54,11.46,512,25.6,512
			h460.8c14.14,0,25.6-11.46,25.6-25.6V76.8C512,62.66,500.54,51.2,486.4,51.2z M384,38.4c0-7.057,5.743-12.8,12.8-12.8
			c7.057,0,12.8,5.743,12.8,12.8v12.8H384V38.4z M102.4,38.4c0-7.057,5.743-12.8,12.8-12.8S128,31.343,128,38.4v12.8h-25.6V38.4z
			 M121.6,486.4h-96v-85.333h96V486.4z M121.6,375.467h-96v-85.333h96V375.467z M121.6,264.533h-96V179.2h96V264.533z M243.2,486.4
			h-96v-85.333h96V486.4z M243.2,375.467h-96v-85.333h96V375.467z M243.2,264.533h-96V179.2h96V264.533z M364.8,486.4h-96v-85.333
			h96V486.4z M364.8,375.467h-96v-85.333h96V375.467z M364.8,264.533h-96V179.2h96V264.533z M486.4,486.4h-96v-85.333h96V486.4z
			 M486.4,375.467h-96v-85.333h96V375.467z M486.4,264.533h-96V179.2h96V264.533z M486.4,153.6H25.6V76.8h460.8V153.6z"/>
	</g>
</g>
</svg>